<?xml version="1.0" encoding="UTF-8"?>
<!DOCTYPE svg PUBLIC "-//W3C//DTD SVG 1.1//EN" "http://www.w3.org/Graphics/SVG/1.1/DTD/svg11.dtd">
<svg version="1.1" xmlns="http://www.w3.org/2000/svg" xmlns:xlink="http://www.w3.org/1999/xlink" x="0" y="0" width="200" height="200" viewBox="0, 0, 200, 200">
  <g id="Background">
    <rect x="0" y="0" width="200" height="200" fill="#FFFFFF"/>
  </g>
  <defs>
    <clipPath id="Clip_1">
      <path d="M-387.704,-131.746 L-38.704,-131.746 L-38.704,261.254 L-387.704,261.254 z"/>
    </clipPath>
  </defs>
  <g id="Layer_1">
    <path d="M20.275,54.874 L180.725,54.874 C185.848,54.874 190,59.695 190,65.642 L190,133.484 C190,139.431 185.848,144.252 180.725,144.252 L20.275,144.252 C15.152,144.252 11,139.431 11,133.484 L11,65.642 C11,59.695 15.152,54.874 20.275,54.874 z" fill-opacity="0" stroke="#016576" stroke-width="8"/>
    <path d="M56.351,180.725 L56.351,20.275 C56.351,15.152 61.2,11 67.181,11 L135.408,11 C141.39,11 146.238,15.152 146.238,20.275 L146.238,180.725 C146.238,185.848 141.39,190 135.408,190 L67.181,190 C61.2,190 56.351,185.848 56.351,180.725 z" fill-opacity="0" stroke="#016576" stroke-width="8"/>
    <g id="Layer_1">
      <path d="M-88.243,-9.457 C-88.243,-4.152 -92.544,0.145 -97.849,0.145 C-103.149,0.145 -107.45,-4.152 -107.45,-9.457 C-107.45,-14.762 -103.149,-19.058 -97.849,-19.058 C-92.544,-19.058 -88.243,-14.762 -88.243,-9.457" fill="#00A3B5"/>
      <path d="M-179.333,121.816 C-179.333,130.309 -186.216,137.195 -194.712,137.195 C-203.204,137.195 -210.091,130.309 -210.091,121.816 C-210.091,113.32 -203.204,106.438 -194.712,106.438 C-186.216,106.438 -179.333,113.32 -179.333,121.816" fill="#32C7C3"/>
      <path d="M-142.204,164.063 C-142.204,178.699 -154.071,190.57 -168.712,190.57 C-183.349,190.57 -195.216,178.699 -195.216,164.063 C-195.216,149.422 -183.349,137.555 -168.712,137.555 C-154.071,137.555 -142.204,149.422 -142.204,164.063" fill="#32C7C3"/>
      <path d="M-169.45,80.906 C-169.45,88.074 -175.263,93.883 -182.431,93.883 C-189.599,93.883 -195.407,88.074 -195.407,80.906 C-195.407,73.738 -189.599,67.93 -182.431,67.93 C-175.263,67.93 -169.45,73.738 -169.45,80.906" fill="#00B7C2"/>
      <path d="M-132.411,44.977 C-132.411,57.594 -142.642,67.828 -155.263,67.828 C-167.884,67.828 -178.114,57.594 -178.114,44.977 C-178.114,32.356 -167.884,22.125 -155.263,22.125 C-142.642,22.125 -132.411,32.356 -132.411,44.977" fill="#00B7C2"/>
      <path d="M-116.708,211.043 C-116.708,222.746 -126.196,232.234 -137.899,232.234 C-149.606,232.234 -159.095,222.746 -159.095,211.043 C-159.095,199.336 -149.606,189.848 -137.899,189.848 C-126.196,189.848 -116.708,199.336 -116.708,211.043" fill="#6CCDC3"/>
      <path d="M-48.341,42.664 C-48.341,61.977 -63.997,77.633 -83.309,77.633 C-102.626,77.633 -118.278,61.977 -118.278,42.664 C-118.278,23.348 -102.626,7.695 -83.309,7.695 C-63.997,7.695 -48.341,23.348 -48.341,42.664" fill="#00A3B5"/>
      <path d="M-102.829,105.774 C-102.829,123.352 -117.075,137.598 -134.649,137.598 C-152.227,137.598 -166.474,123.352 -166.474,105.774 C-166.474,88.199 -152.227,73.953 -134.649,73.953 C-117.075,73.953 -102.829,88.199 -102.829,105.774" fill="#00B7C2"/>
      <path d="M-165.317,226.43 C-165.317,243.391 -179.071,257.141 -196.032,257.141 C-212.997,257.141 -226.747,243.391 -226.747,226.43 C-226.747,209.465 -212.997,195.715 -196.032,195.715 C-179.071,195.715 -165.317,209.465 -165.317,226.43" fill="#6CCDC3"/>
      <path d="M-39.466,111.399 C-39.466,126.332 -51.571,138.442 -66.505,138.442 C-81.438,138.442 -93.548,126.332 -93.548,111.399 C-93.548,96.465 -81.438,84.359 -66.505,84.359 C-51.571,84.359 -39.466,96.465 -39.466,111.399" fill="#00B7C2"/>
      <path d="M-71.122,166.774 C-71.122,182.816 -84.126,195.82 -100.169,195.82 C-116.212,195.82 -129.22,182.816 -129.22,166.774 C-129.22,150.731 -116.212,137.723 -100.169,137.723 C-84.126,137.723 -71.122,150.731 -71.122,166.774" fill="#32C7C3"/>
      <path d="M-205.122,164.293 C-205.122,179.219 -217.22,191.32 -232.149,191.32 C-247.075,191.32 -259.177,179.219 -259.177,164.293 C-259.177,149.367 -247.075,137.266 -232.149,137.266 C-217.22,137.266 -205.122,149.367 -205.122,164.293" fill="#6CCDC3"/>
      <path d="M-241.509,222.047 C-241.509,243.465 -258.876,260.828 -280.294,260.828 C-301.716,260.828 -319.079,243.465 -319.079,222.047 C-319.079,200.625 -301.716,183.262 -280.294,183.262 C-258.876,183.262 -241.509,200.625 -241.509,222.047" fill="#9CD6C4"/>
      <g clip-path="url(#Clip_1)">
        <path d="M-366.528,-131.746 L-347.544,-131.746 L-347.544,-112.758 L-366.528,-112.758 z" fill="#006576"/>
      </g>
      <path d="M-352.411,-103.312 L-331.345,-103.312 L-331.345,-82.246 L-352.411,-82.246 z" fill="#006576"/>
      <path d="M-387.704,-102.668 L-361.759,-102.668 L-361.759,-76.723 L-387.704,-76.723 z" fill="#006576"/>
      <path d="M-346.61,-43.223 L-359.895,-43.223 C-363.059,-43.223 -365.622,-45.785 -365.622,-48.949 L-365.622,-62.234 C-365.622,-65.398 -363.059,-67.961 -359.895,-67.961 L-346.61,-67.961 C-343.45,-67.961 -340.888,-65.398 -340.888,-62.234 L-340.888,-48.949 C-340.888,-45.785 -343.45,-43.223 -346.61,-43.223" fill="#00758C"/>
      <path d="M-309.231,-46.668 L-323.903,-46.668 C-327.985,-46.668 -331.298,-49.98 -331.298,-54.062 L-331.298,-68.734 C-331.298,-72.816 -327.985,-76.125 -323.903,-76.125 L-309.231,-76.125 C-305.149,-76.125 -301.837,-72.816 -301.837,-68.734 L-301.837,-54.062 C-301.837,-49.98 -305.149,-46.668 -309.231,-46.668" fill="#00758C"/>
      <path d="M-267.95,-14.172 L-282.059,-14.172 C-288.145,-14.172 -293.079,-19.109 -293.079,-25.195 L-293.079,-39.305 C-293.079,-45.391 -288.145,-50.328 -282.059,-50.328 L-267.95,-50.328 C-261.86,-50.328 -256.927,-45.391 -256.927,-39.305 L-256.927,-25.195 C-256.927,-19.109 -261.86,-14.172 -267.95,-14.172" fill="#007B92"/>
      <path d="M-231.497,-26.223 L-237.259,-26.223 C-246.044,-26.223 -253.169,-33.348 -253.169,-42.137 L-253.169,-47.894 C-253.169,-56.684 -246.044,-63.808 -237.259,-63.808 L-231.497,-63.808 C-222.708,-63.808 -215.587,-56.684 -215.587,-47.894 L-215.587,-42.137 C-215.587,-33.348 -222.708,-26.223 -231.497,-26.223" fill="#0094AB"/>
      <path d="M-199.52,27.137 L-199.942,27.137 C-212.809,27.137 -223.235,16.707 -223.235,3.844 L-223.235,3.422 C-223.235,-9.441 -212.809,-19.871 -199.942,-19.871 L-199.52,-19.871 C-186.657,-19.871 -176.227,-9.441 -176.227,3.422 L-176.227,3.844 C-176.227,16.707 -186.657,27.137 -199.52,27.137" fill="#00A3B5"/>
      <path d="M-146.306,8.875 C-160.2,8.875 -171.462,-2.387 -171.462,-16.281 C-171.462,-30.176 -160.2,-41.437 -146.306,-41.437 C-132.411,-41.437 -121.149,-30.176 -121.149,-16.281 C-121.149,-2.387 -132.411,8.875 -146.306,8.875" fill="#00A3B5"/>
      <path d="M-282.513,-59.414 L-288.524,-59.414 C-290.892,-59.414 -292.809,-61.332 -292.809,-63.699 L-292.809,-69.012 C-292.809,-71.379 -290.892,-73.297 -288.524,-73.297 L-282.513,-73.297 C-280.149,-73.297 -278.227,-71.379 -278.227,-69.012 L-278.227,-63.699 C-278.227,-61.332 -280.149,-59.414 -282.513,-59.414" fill="#007B92"/>
      <path d="M-259.798,-54.871 L-263.829,-54.871 C-266.743,-54.871 -269.102,-57.23 -269.102,-60.144 L-269.102,-63.476 C-269.102,-66.391 -266.743,-68.75 -263.829,-68.75 L-259.798,-68.75 C-256.884,-68.75 -254.52,-66.391 -254.52,-63.476 L-254.52,-60.144 C-254.52,-57.23 -256.884,-54.871 -259.798,-54.871" fill="#0094AB"/>
      <path d="M-238.032,1.254 L-245.059,1.254 C-248.599,1.254 -251.466,-1.617 -251.466,-5.156 L-251.466,-11.234 C-251.466,-14.773 -248.599,-17.641 -245.059,-17.641 L-238.032,-17.641 C-234.493,-17.641 -231.622,-14.773 -231.622,-11.234 L-231.622,-5.156 C-231.622,-1.617 -234.493,1.254 -238.032,1.254" fill="#0094AB"/>
      <path d="M-190.001,-27.863 L-194.431,-27.863 C-201.024,-27.863 -206.368,-33.207 -206.368,-39.801 L-206.368,-42.875 C-206.368,-49.469 -201.024,-54.816 -194.431,-54.816 L-190.001,-54.816 C-183.407,-54.816 -178.059,-49.469 -178.059,-42.875 L-178.059,-39.801 C-178.059,-33.207 -183.407,-27.863 -190.001,-27.863" fill="#00A3B5"/>
      <path d="M-307.591,-24.805 L-313.665,-24.805 C-316.013,-24.805 -317.919,-26.711 -317.919,-29.058 L-317.919,-34.434 C-317.919,-36.785 -316.013,-38.687 -313.665,-38.687 L-307.591,-38.687 C-305.243,-38.687 -303.337,-36.785 -303.337,-34.434 L-303.337,-29.058 C-303.337,-26.711 -305.243,-24.805 -307.591,-24.805" fill="#00758C"/>
    </g>
  </g>
</svg>
