<?xml version="1.0" encoding="UTF-8"?>
<!DOCTYPE svg PUBLIC "-//W3C//DTD SVG 1.1//EN" "http://www.w3.org/Graphics/SVG/1.1/DTD/svg11.dtd">
<svg version="1.1" xmlns="http://www.w3.org/2000/svg" xmlns:xlink="http://www.w3.org/1999/xlink" x="0" y="0" width="200" height="200" viewBox="0, 0, 200, 200">
  <g id="Background">
    <rect x="0" y="0" width="200" height="200" fill="#FFFFFF"/>
  </g>
  <g id="Layer_1">
    <path d="M47.522,156.499 C42.275,156.499 38.022,152.246 38.022,146.999 C38.022,141.752 42.275,137.499 47.522,137.499 C52.768,137.499 57.022,141.752 57.022,146.999 C57.022,152.246 52.768,156.499 47.522,156.499 z" fill-opacity="0" stroke="#000000" stroke-width="6"/>
    <path d="M122.994,153.007 C117.747,153.007 113.494,148.754 113.494,143.507 C113.494,138.26 117.747,134.007 122.994,134.007 C128.241,134.007 132.494,138.26 132.494,143.507 C132.494,148.754 128.241,153.007 122.994,153.007 z" fill-opacity="0" stroke="#000000" stroke-width="6"/>
    <path d="M154.505,37.003 C149.258,37.003 145.005,32.75 145.005,27.503 C145.005,22.256 149.258,18.003 154.505,18.003 C159.751,18.003 164.005,22.256 164.005,27.503 C164.005,32.75 159.751,37.003 154.505,37.003 z" fill-opacity="0" stroke="#000000" stroke-width="6"/>
    <path d="M163.996,110.015 C158.749,110.015 154.496,105.762 154.496,100.515 C154.496,95.268 158.749,91.015 163.996,91.015 C169.242,91.015 173.496,95.268 173.496,100.515 C173.496,105.762 169.242,110.015 163.996,110.015 z" fill-opacity="0" stroke="#000000" stroke-width="6"/>
    <path d="M17.505,173.504 C119.505,162.504 169.505,66.504 185.505,17.504" fill-opacity="0" stroke="#000000" stroke-width="6" stroke-linecap="round"/>
  </g>
</svg>
