<?xml version="1.0" encoding="UTF-8"?>
<!DOCTYPE svg PUBLIC "-//W3C//DTD SVG 1.1//EN" "http://www.w3.org/Graphics/SVG/1.1/DTD/svg11.dtd">
<svg version="1.1" xmlns="http://www.w3.org/2000/svg" xmlns:xlink="http://www.w3.org/1999/xlink" x="0" y="0" width="756" height="282" viewBox="0, 0, 756, 282">
  <g id="Background">
    <rect x="0" y="0" width="756" height="282" fill="#FFFFFF"/>
  </g>
  <g id="Layer_1">
    <path d="M0,0 C249.48,0 498.96,0 756,0 C756,93.06 756,186.12 756,282 C506.52,282 257.04,282 0,282 C0,188.94 0,95.88 0,0 z" fill="#FEFEFE"/>
    <path d="M165,38 C165.375,43.476 164.688,46.316 161.562,50.812 C160.605,52.214 160.605,52.214 159.629,53.645 C159.091,54.422 158.554,55.199 158,56 C156.427,59.145 156.635,62.564 157,66 C157.66,67.65 158.32,69.3 159,71 C167.91,70.67 176.82,70.34 186,70 C186.99,67.525 186.99,67.525 188,65 C188.387,64.321 188.773,63.641 189.172,62.941 C190.206,60.517 189.946,59.453 189.25,56.937 C188.313,53.285 187.535,49.651 186.875,45.937 C186.707,44.998 186.54,44.058 186.367,43.09 C186.246,42.4 186.125,41.711 186,41 C188.64,41.66 191.28,42.32 194,43 C194.99,47.62 195.98,52.24 197,57 C198.169,56.856 199.338,56.711 200.543,56.562 C202.091,56.375 203.639,56.187 205.188,56 C206.341,55.857 206.341,55.857 207.518,55.711 C209.016,55.531 210.516,55.363 212.017,55.207 C213.574,55.045 215.126,54.842 216.676,54.625 C220.392,55.225 222.724,57.134 225,60 C226.395,63.055 227.235,66.189 228.062,69.437 C229.753,75.922 231.452,80.038 236,85 C236,85.66 236,86.32 236,87 C237.093,86.319 238.186,85.639 239.312,84.937 C241.176,83.777 241.176,83.777 243,83 C243.99,83.33 244.98,83.66 246,84 C246.812,86.187 246.812,86.187 247,89 C244.562,91.812 244.562,91.812 242,94 C244.328,100.66 244.328,100.66 249.301,105.262 C251.718,106.028 251.718,106.028 254.109,106.5 C254.733,106.665 255.357,106.83 256,107 C257.354,109.709 257.065,112.009 257,115 C255.987,114.658 255.987,114.658 254.953,114.309 C254.061,114.021 253.169,113.734 252.25,113.437 C251.368,113.147 250.487,112.857 249.578,112.559 C246.782,111.953 245.58,111.789 243,113 C238.712,117.087 237.586,121.815 236.188,127.375 C235.959,128.2 235.73,129.025 235.494,129.875 C233.271,138.44 234.897,144.481 238.562,152.312 C242,159.773 242,159.773 242,162 C242.87,161.783 242.87,161.783 243.758,161.562 C248.267,160.491 252.331,159.761 257,160 C257,161.98 257,163.96 257,166 C252.463,167.452 248.819,168.235 244,168 C244.42,173.708 245.003,179.124 246.375,184.688 C247.228,188.929 246.93,191.01 244.625,194.688 C243.78,195.815 242.915,196.929 242,198 C241.34,197.67 240.68,197.34 240,197 C239.148,194.277 239.148,194.277 238.375,190.938 C238.115,189.833 237.854,188.728 237.586,187.59 C237.296,186.308 237.296,186.308 237,185 C225.447,186.247 219.231,188.419 211,197 C209.001,198.693 206.98,200.36 204.938,202 C201.878,204.397 201.878,204.397 199,207 C200.1,207.014 201.199,207.028 202.332,207.043 C211.573,207.295 218.835,208.221 227,213 C227,213.66 227,214.32 227,215 C224,217 224,217 221,216.688 C218,216 218,216 215,215 C214.902,215.615 214.804,216.23 214.703,216.863 C213.477,223.493 213.477,223.493 211.062,226.062 C209,227 209,227 206,227 C206.502,223.271 207.042,219.639 208,216 C207.065,216.102 207.065,216.102 206.111,216.206 C186.974,218.017 186.974,218.017 180.355,213.105 C176.88,210.024 173.882,206.636 171,203 C167.233,204.588 164.629,206.94 161.688,209.75 C160.784,210.59 159.88,211.431 158.949,212.297 C156.712,214.848 156.712,214.848 156.984,217.984 C158.437,222.296 160.878,225.542 163.504,229.219 C165.22,232.409 165.289,234.431 165,238 C146.07,239.052 125.423,236.122 109,226 C106.577,223.475 105.58,221.431 105,218 C104.83,217.008 104.83,217.008 104.656,215.996 C104.096,208.84 107.878,203.496 112,198 C113.964,191.718 114.391,184.847 111.473,178.875 C110.239,176.977 108.96,175.108 107.629,173.277 C104.472,168.864 104.248,164.242 105,159 C106.721,154.895 109.132,151.279 111.625,147.605 C114.269,142.594 113.966,137.48 113,132 C111.599,128.801 109.737,125.912 107.871,122.969 C105.278,118.796 104.015,115.784 104.539,110.879 C105.438,107.215 106.97,104.297 109.313,101.348 C113.304,95.985 113.843,91.178 113.637,84.555 C112.747,79.588 110.605,76.217 107.629,72.207 C104.887,68.493 104.512,64.962 104.621,60.473 C105.367,55.608 107.453,52.362 111,49 C126.473,39.279 147.157,37.009 165,38 z" fill="#D38A35"/>
    <path d="M165,38 C165.375,43.476 164.688,46.316 161.562,50.812 C160.605,52.214 160.605,52.214 159.629,53.645 C159.091,54.422 158.554,55.199 158,56 C156.364,59.272 156.467,62.466 157,66 C158.733,70.41 160.966,74.493 163.645,78.398 C166.178,83.262 165.499,88.66 165,94 C163.75,97.437 163.75,97.437 162,100 C160.948,101.578 160.948,101.578 159.875,103.187 C159.256,104.116 158.637,105.044 158,106 C156.608,110.177 156.102,113.703 157,118 C158.258,120.13 159.6,122.211 161,124.25 C165.423,130.754 166.401,136.241 165,144 C163.792,147.631 161.934,150.581 159.844,153.758 C157.08,158.16 155.921,161.898 157,167 C158.764,171.404 160.962,175.487 163.645,179.398 C166.178,184.262 165.499,189.66 165,195 C163.75,198.438 163.75,198.438 162,201 C160.948,202.578 160.948,202.578 159.875,204.188 C158.947,205.58 158.947,205.58 158,207 C156.194,212.418 156.257,217.032 158.75,222.125 C160.116,224.623 161.577,226.801 163.25,229.125 C165.27,232.443 165.147,234.2 165,238 C146.07,239.052 125.423,236.122 109,226 C106.577,223.475 105.58,221.431 105,218 C104.83,217.008 104.83,217.008 104.656,215.996 C104.096,208.84 107.878,203.496 112,198 C113.964,191.718 114.391,184.847 111.473,178.875 C110.239,176.977 108.96,175.108 107.629,173.277 C104.472,168.864 104.248,164.242 105,159 C106.721,154.895 109.132,151.279 111.625,147.605 C114.269,142.594 113.966,137.48 113,132 C111.599,128.801 109.737,125.912 107.871,122.969 C105.278,118.796 104.015,115.784 104.539,110.879 C105.438,107.215 106.97,104.297 109.312,101.348 C113.303,95.985 113.843,91.178 113.637,84.555 C112.747,79.588 110.605,76.217 107.629,72.207 C104.887,68.493 104.512,64.962 104.621,60.473 C105.367,55.608 107.453,52.362 111,49 C126.473,39.279 147.157,37.009 165,38 z" fill="#1C3D5C"/>
    <path d="M108,51 C108,54 108,54 107.023,55.922 C105.25,59.523 105.471,63.081 106,67 C107.437,71.081 109.439,74.346 112.25,77.625 C115.163,83.242 115.024,88.829 114,95 C112.472,98.226 110.753,100.93 108.629,103.793 C106.024,107.323 105.441,110.865 105.434,115.223 C106.182,118.891 108.017,121.641 110,124.75 C113.55,130.473 115.165,134.973 114.742,141.879 C113.642,146.507 111.424,149.952 108.629,153.758 C105.45,158.134 105.251,162.782 106,168 C107.723,172.11 110.131,175.733 112.645,179.398 C115.254,184.407 114.832,190.72 113.461,196.125 C111.858,200.07 109.387,203.499 107,207 C105.012,212.964 105.702,218.255 108,224 C91.223,218.192 78.487,201.169 70.703,185.913 C59.019,161.745 55.739,132.708 64,107 C64.204,106.336 64.407,105.672 64.617,104.988 C71.33,83.527 85.454,63.876 105.125,52.5 C106.074,52.005 107.022,51.51 108,51 z" fill="#82BAE5"/>
    <path d="M140,40 C139.507,44.753 138.283,47.388 135.438,51.187 C131.688,56.857 130.672,61.309 132,68 C133.474,71.792 135.913,74.876 138.25,78.187 C141.031,83.149 140.949,88.507 140,94 C138.369,97.636 136.276,100.745 134,104 C131.163,108.805 131.047,113.568 132,119 C133.563,122.121 135.334,124.856 137.371,127.687 C140.852,132.629 140.709,138.176 140,144 C138.327,148.211 135.926,151.786 133.188,155.375 C131.118,159.95 131.011,164.097 132,169 C133.268,171.408 134.547,173.651 136,175.938 C139.411,181.376 141.125,185.662 140.672,192.168 C139.5,197.106 136.968,200.948 134,205 C130.839,209.742 131.103,214.465 132,220 C133.551,223.098 135.301,225.754 137.371,228.527 C139.064,231.097 139.616,232.974 140,236 C132.967,235.24 126.599,233.704 120.062,231.062 C119.437,230.81 118.811,230.557 118.166,230.296 C108.776,226.365 108.776,226.365 106.188,221.812 C104.302,215.759 104.081,211.414 106.812,205.75 C108.338,202.98 110.104,200.528 112,198 C113.964,191.718 114.391,184.847 111.473,178.875 C110.239,176.977 108.96,175.108 107.629,173.277 C104.472,168.864 104.248,164.242 105,159 C106.721,154.895 109.132,151.279 111.625,147.605 C114.269,142.594 113.966,137.48 113,132 C111.599,128.801 109.737,125.912 107.871,122.969 C105.278,118.796 104.015,115.784 104.539,110.879 C105.438,107.215 106.97,104.297 109.312,101.348 C113.303,95.985 113.843,91.178 113.637,84.555 C112.747,79.588 110.605,76.217 107.629,72.207 C104.887,68.493 104.512,64.962 104.621,60.473 C105.365,55.619 107.435,52.333 111,49 C119.351,44.16 130.218,40 140,40 z" fill="#3B85A5"/>
    <path d="M333,71 C362.714,71 362.714,71 371.75,76.75 C378.448,83.448 381.048,90.918 381.312,100.312 C381.122,110.107 378.834,117.814 372,125 C360.856,135.068 348.134,132 333,132 C333,111.87 333,91.74 333,71 z" fill="#204160"/>
    <path d="M388,70 C421.717,70 421.717,70 428.375,74.312 C429.001,74.701 429.628,75.089 430.273,75.488 C433.552,78.359 434.867,80.989 435.434,85.305 C435.447,97.441 435.447,97.441 431,103 C427.71,106 427.71,106 425,106 C425.358,106.681 425.717,107.362 426.086,108.064 C427.705,111.145 429.321,114.229 430.938,117.312 C431.783,118.92 431.783,118.92 432.646,120.561 C433.185,121.589 433.723,122.617 434.277,123.676 C434.775,124.624 435.272,125.572 435.785,126.548 C437,129 437,129 438,132 C432.72,132 427.44,132 422,132 C420.354,128.875 418.708,125.75 417.062,122.625 C416.594,121.736 416.125,120.846 415.643,119.93 C415.195,119.079 414.747,118.228 414.285,117.352 C413.871,116.566 413.458,115.781 413.031,114.971 C412.342,113.654 411.665,112.33 411,111 C408.36,110.67 405.72,110.34 403,110 C403,117.26 403,124.52 403,132 C398.05,132 393.1,132 388,132 C388,111.54 388,91.08 388,70 z" fill="#234261"/>
    <path d="M209.75,160.809 C214.669,165.599 215.288,173.424 216,180 C215.315,184.687 212.262,186.661 208.75,189.5 C207.48,190.555 206.212,191.612 204.945,192.672 C204.295,193.215 203.644,193.759 202.974,194.318 C199.777,197.042 196.698,199.889 193.625,202.75 C192.778,203.538 192.778,203.538 191.913,204.342 C190.607,205.559 189.303,206.779 188,208 C182.076,205.356 177.53,201.436 174,196 C172.937,190.189 173.354,184.727 173.875,178.875 C173.974,177.331 174.067,175.787 174.156,174.242 C174.383,170.489 174.673,166.746 175,163 C177.395,162.184 179.791,161.372 182.188,160.562 C182.861,160.332 183.535,160.102 184.229,159.865 C193.415,156.773 200.868,156.273 209.75,160.809 z" fill="#FAE695"/>
    <path d="M286,71 C299.53,71 313.06,71 327,71 C327,74.63 327,78.26 327,82 C318.42,82 309.84,82 301,82 C301,86.62 301,91.24 301,96 C308.59,96 316.18,96 324,96 C324,99.96 324,103.92 324,108 C316.41,108 308.82,108 301,108 C301,115.92 301,123.84 301,132 C296.05,132 291.1,132 286,132 C286,111.87 286,91.74 286,71 z" fill="#224261"/>
    <path d="M244,111 C244.905,111.217 244.905,111.217 245.828,111.438 C246.627,111.623 247.427,111.809 248.25,112 C249.039,112.186 249.828,112.371 250.641,112.562 C253.256,113.122 253.256,113.122 257,113 C261.252,120.086 260.183,129.306 260.188,137.25 C260.2,138.414 260.212,139.578 260.225,140.777 C260.237,148.074 259.596,154.878 258,162 C257.67,161.34 257.34,160.68 257,160 C249.575,160.99 249.575,160.99 242,162 C240.455,158.843 238.939,155.677 237.438,152.5 C237,151.613 236.562,150.726 236.111,149.812 C233.331,143.858 232.527,140.421 234,134 C234.125,133.338 234.25,132.676 234.378,131.994 C235.938,123.745 237.584,116.833 244,111 z" fill="#FAE696"/>
    <path d="M169,202 C171.848,203.284 173.105,204.122 175.207,206.566 C179.978,212.052 183.468,215.141 190.902,215.945 C196.612,216.273 202.287,216.208 208,216 C207.67,219.96 207.34,223.92 207,228 C193.193,233.541 179.966,237.205 165,238 C164.794,236.866 164.588,235.731 164.375,234.562 C163.287,230.075 161.11,226.918 158.34,223.273 C156.568,220.267 155.904,218.524 156,215 C157.802,212.337 160.064,210.277 162.438,208.125 C163.062,207.532 163.687,206.939 164.33,206.328 C165.871,204.869 167.434,203.432 169,202 z" fill="#F9E696"/>
    <path d="M445,70 C449.95,70 454.9,70 460,70 C460,90.46 460,110.92 460,132 C455.05,132 450.1,132 445,132 C445,111.54 445,91.08 445,70 z" fill="#254563"/>
    <path d="M157,116 C158.875,116.143 160.75,116.289 162.625,116.438 C163.669,116.519 164.713,116.6 165.789,116.684 C166.849,116.788 167.908,116.892 169,117 C170.549,117.114 170.549,117.114 172.129,117.23 C175.901,118.241 176.984,119.779 179.312,122.875 C180.451,124.358 180.451,124.358 181.613,125.871 C182.401,126.904 183.189,127.936 184,129 C186.406,131.872 188.826,134.732 191.25,137.59 C194.424,141.962 194.103,145.669 194,151 C182.039,154.64 171.542,156.778 159,156 C159.601,153.11 160.513,151.056 162.062,148.562 C164.904,142.9 165.124,137.178 164,131 C162.419,127.846 160.66,125.149 158.531,122.34 C157,120 157,120 157,116 z" fill="#F8E494"/>
    <path d="M165,38 C167.75,38.309 170.5,38.622 173.25,38.938 C174.027,39.025 174.805,39.112 175.605,39.201 C176.737,39.332 176.737,39.332 177.891,39.465 C178.928,39.583 178.928,39.583 179.985,39.703 C180.983,39.85 180.983,39.85 182,40 C182.713,40.101 183.427,40.202 184.162,40.306 C184.768,40.535 185.375,40.764 186,41 C187.168,43.799 188.032,46.344 188.812,49.25 C189.041,50.014 189.27,50.779 189.506,51.566 C191.147,57.378 191.18,61.36 188.188,66.75 C186,70 186,70 184.202,70.683 C181.652,71.05 179.153,71.216 176.578,71.316 C175.553,71.358 174.529,71.4 173.473,71.443 C172.409,71.483 171.346,71.522 170.25,71.562 C168.632,71.627 168.632,71.627 166.98,71.693 C164.32,71.799 161.66,71.901 159,72 C156.478,67.212 154.702,63.416 156,58 C160.769,48.231 160.769,48.231 164,45 C164.368,42.672 164.702,40.338 165,38 z" fill="#F8E595"/>
    <path d="M179.516,77.652 C184.864,77.123 187.354,78.658 191.562,82 C193.06,83.313 194.546,84.64 196,86 C194.682,88.863 193.219,91.101 191.137,93.461 C190.579,94.098 190.022,94.735 189.447,95.391 C188.867,96.045 188.286,96.7 187.688,97.375 C186.545,98.674 185.403,99.973 184.262,101.273 C183.702,101.896 183.142,102.519 182.565,103.161 C180.986,104.946 180.986,104.946 179.773,106.833 C178.625,108.512 178.625,108.512 176,111 C172.989,111.454 170.287,110.99 167.312,110.438 C166.541,110.323 165.77,110.209 164.975,110.092 C159.487,109.243 159.487,109.243 157,108 C158.454,103.881 160.567,100.611 163,97 C164.206,93.381 164.108,90.075 164.062,86.312 C164.058,85.611 164.053,84.909 164.049,84.186 C164.037,82.457 164.019,80.728 164,79 C167.181,78.725 170.361,78.471 173.547,78.254 C175.541,78.107 177.535,77.926 179.516,77.652 z" fill="#F8E595"/>
    <path d="M226,85 C227.809,86.836 227.809,86.836 229.438,89.375 C230.024,90.283 230.611,91.19 231.215,92.125 C231.804,93.074 232.393,94.022 233,95 C233.599,95.908 234.199,96.815 234.816,97.75 C239.011,104.29 239.011,104.29 238.969,107.039 C237.436,110.142 236.015,111.217 233,113 C229.262,113.901 225.506,114.335 221.688,114.75 C220.661,114.875 219.634,115 218.576,115.129 C216.052,115.434 213.527,115.724 211,116 C209.996,111.876 208.998,107.751 208,103.625 C207.714,102.449 207.428,101.274 207.133,100.062 C206.862,98.941 206.591,97.82 206.312,96.664 C206.061,95.627 205.81,94.59 205.551,93.522 C205,91 205,91 205,89 C207.561,88.326 210.123,87.661 212.688,87 C213.409,86.809 214.13,86.618 214.873,86.422 C222.744,84.409 222.744,84.409 226,85 z" fill="#FAE695"/>
    <path d="M237,185 C237.277,185.843 237.554,186.686 237.84,187.555 C238.383,189.198 238.383,189.198 238.938,190.875 C239.477,192.511 239.477,192.511 240.027,194.18 C240.899,196.908 240.899,196.908 242,199 C241.34,199 240.68,199 240,199 C239.74,199.576 239.479,200.152 239.211,200.746 C237.913,203.162 236.438,205.008 234.625,207.062 C234.04,207.734 233.455,208.406 232.852,209.098 C231.024,210.975 229.136,212.49 227,214 C226.415,213.651 225.83,213.301 225.227,212.941 C216.337,208.23 207.837,208.119 198,208 C201.193,203.988 204.332,200.698 208.375,197.5 C211.582,194.961 214.631,192.411 217.562,189.562 C222.984,184.857 230.145,184.901 237,185 z" fill="#FAE696"/>
    <path d="M229,121 C228.395,124.347 227.706,127.672 227,131 C226.863,131.791 226.727,132.583 226.586,133.398 C224.646,142.116 218.64,148.354 213,155 C204.133,152.065 204.133,152.065 201,150 C198.793,145.01 198.782,141.26 200,136 C201.614,133.677 203.11,131.743 205,129.688 C208.351,126.092 208.351,126.092 211,122 C216.954,120.706 222.933,120.901 229,121 z" fill="#F9E594"/>
    <path d="M348,82 C357.126,82 357.126,82 359.812,83.562 C360.355,83.853 360.898,84.143 361.457,84.441 C365.382,88.406 366.374,93.492 366.468,98.9 C366.453,99.908 366.453,99.908 366.438,100.938 C366.43,101.639 366.422,102.34 366.415,103.063 C366.231,108.824 365.435,112.39 362,117 C356.99,120.643 354.706,120 348,120 C348,107.46 348,94.92 348,82 z" fill="#FAFBFC"/>
    <path d="M303,188 C307.62,188 312.24,188 317,188 C317,188.99 317,189.98 317,191 C317.681,190.505 318.361,190.01 319.062,189.5 C322.687,187.649 324.975,187.561 329,188 C331.438,189.312 331.438,189.312 333,191 C333,191.99 333,192.98 333,194 C329.976,193.412 326.982,192.773 324,192 C323.67,192.99 323.34,193.98 323,195 C324.64,195.402 324.64,195.402 326.312,195.812 C331.576,197.507 331.576,197.507 333,200 C332.875,203.062 332.875,203.062 332,206 C328.263,208.492 326.427,208.458 322,208 C319.062,206 319.062,206 317,204 C317,205.32 317,206.64 317,208 C312.38,208 307.76,208 303,208 C303,201.4 303,194.8 303,188 z" fill="#E7EBEE"/>
    <path d="M218,63 C220.054,68.089 221.432,72.545 222,78 C207.658,82.883 207.658,82.883 201,83 C196.926,80.975 194.02,78.376 191,75 C193.761,66.612 193.761,66.612 196,64 C203.112,62.256 210.717,62.908 218,63 z" fill="#F9E393"/>
    <path d="M198,95 C200.438,98.658 201.408,102.186 202.625,106.375 C202.969,107.508 202.969,107.508 203.32,108.664 C205.637,116.553 205.637,116.553 205,120 C203.031,122.895 203.031,122.895 200.5,125.812 C199.665,126.788 198.829,127.764 197.969,128.77 C196.994,129.874 196.994,129.874 196,131 C192.468,127.568 189.286,124.026 186.188,120.188 C185.397,119.212 184.607,118.236 183.793,117.23 C183.201,116.494 182.61,115.758 182,115 C183.345,112.064 184.876,109.787 187.004,107.363 C187.579,106.704 188.155,106.045 188.748,105.365 C189.347,104.688 189.946,104.01 190.562,103.312 C191.165,102.623 191.768,101.934 192.389,101.225 C196.725,96.275 196.725,96.275 198,95 z" fill="#F9E594"/>
    <path d="M226,149 C231.723,154.254 236.333,161.506 237.484,169.262 C237.498,171.907 237.438,174.391 237,177 C236,178 236,178 233.059,178.098 C231.864,178.086 230.669,178.074 229.438,178.062 C227.641,178.049 227.641,178.049 225.809,178.035 C224.882,178.024 223.955,178.012 223,178 C222.133,175.42 221.281,172.837 220.438,170.25 C220.191,169.52 219.944,168.791 219.689,168.039 C219.461,167.33 219.232,166.621 218.996,165.891 C218.781,165.241 218.567,164.592 218.345,163.923 C217.73,160.499 218.689,158.45 220.629,155.641 C221.267,154.852 221.905,154.063 222.562,153.25 C223.203,152.451 223.844,151.652 224.504,150.828 C224.998,150.225 225.491,149.622 226,149 z" fill="#F9E494"/>
    <path d="M403,82 C415.051,81.391 415.051,81.391 419.312,84.125 C421.286,87.487 421.571,89.166 421,93 C420.153,95.54 419.556,96.637 417.312,98.102 C412.782,99.862 407.786,99.104 403,99 C403,93.39 403,87.78 403,82 z" fill="#F7F8F9"/>
    <path d="M463.562,155.875 C467.701,157.229 468.96,158.164 471,162 C471.732,166.12 471.401,169.144 469.625,172.938 C468,175 468,175 466,176 C461.954,176.45 459.848,176.652 456.562,174.125 C454.348,169.696 454.094,165.857 455,161 C457.603,156.978 458.755,156.044 463.562,155.875 z" fill="#375470"/>
    <path d="M346,157 C348.527,159.138 349.789,160.654 350.309,163.969 C350.428,167.733 350.251,170.92 348,174 C344.267,176.488 342.416,176.542 338,176 C335.003,173.772 334.161,172.028 333.586,168.359 C333.354,163.785 333.263,160.982 336.062,157.25 C339.946,155.598 341.98,155.757 346,157 z" fill="#375470"/>
    <path d="M323.562,155.875 C327.671,157.22 328.943,158.216 331,162 C331.663,167.211 330.753,170.553 328,175 C324.871,176.564 322.444,176.356 319,176 C316.16,173.815 315.199,172.144 314.586,168.617 C314.33,164.101 314.566,161.671 317.062,157.812 C320,156 320,156 323.562,155.875 z" fill="#304E6B"/>
    <path d="M353,157 C362.329,156.509 362.329,156.509 365.562,158.875 C368,162.479 368.421,164.617 368,169 C364.877,174.708 364.877,174.708 361,176 C358.36,176 355.72,176 353,176 C353,169.73 353,163.46 353,157 z" fill="#33516E"/>
    <path d="M420,157 C429.087,156.522 429.087,156.522 432.625,158.375 C434.779,162.488 434.77,166.463 434,171 C432.115,173.576 430.807,174.597 428,176 C425.36,176 422.72,176 420,176 C420,169.73 420,163.46 420,157 z" fill="#2D4C69"/>
    <path d="M632,188 C642,188 642,188 646,190 C646.875,192.938 646.875,192.938 647,196 C646.01,197.485 646.01,197.485 645,199 C645.276,200.941 645.276,200.941 646,203 C646.341,204.665 646.676,206.332 647,208 C645.68,208 644.36,208 643,208 C642.567,207.031 642.134,206.061 641.688,205.062 C640.299,201.723 640.299,201.723 637,201 C637,203.31 637,205.62 637,208 C635.35,208 633.7,208 632,208 C632,201.4 632,194.8 632,188 z" fill="#3E5A75"/>
    <path d="M544,188 C554,188 554,188 558,191 C558.295,194.249 558.325,196.927 557.375,200.062 C556.802,203.023 557.937,205.247 559,208 C557.35,207.67 555.7,207.34 554,207 C553.34,205.02 552.68,203.04 552,201 C551.01,201 550.02,201 549,201 C549,203.31 549,205.62 549,208 C547.35,208 545.7,208 544,208 C544,201.4 544,194.8 544,188 z" fill="#395671"/>
    <path d="M437,157 C448.488,156.629 448.488,156.629 450.867,158.352 C452.46,160.669 452.352,162.252 452,165 C451.34,165.66 450.68,166.32 450,167 C450.286,168.897 450.286,168.897 451,171 C451.341,172.665 451.676,174.332 452,176 C450.68,176 449.36,176 448,176 C447.567,175.031 447.134,174.061 446.688,173.062 C445.298,169.723 445.298,169.723 442,169 C442,171.31 442,173.62 442,176 C440.35,176 438.7,176 437,176 C437,169.73 437,163.46 437,157 z" fill="#385571"/>
    <path d="M474,188 C484,188 484,188 488,191 C488.297,194.271 488.305,196.962 487.375,200.125 C486.833,202.835 487.848,204.56 489,207 C486.625,206.75 486.625,206.75 484,206 C482.875,204 482.875,204 482,202 C481.01,201.67 480.02,201.34 479,201 C479,203.31 479,205.62 479,208 C477.35,208 475.7,208 474,208 C474,201.4 474,194.8 474,188 z" fill="#34526E"/>
    <path d="M440,188 C445,189 445,189 446.582,190.848 C447.721,192.898 448.861,194.949 450,197 C450.33,194.03 450.66,191.06 451,188 C452.65,188 454.3,188 456,188 C456,194.6 456,201.2 456,208 C454.35,208 452.7,208 451,208 C449.02,204.37 447.04,200.74 445,197 C444.67,200.3 444.34,203.6 444,207 C442.68,207 441.36,207 440,207 C440,200.73 440,194.46 440,188 z" fill="#415D77"/>
    <path d="M370,188 C380.9,188 380.9,188 384,191 C384.478,194.212 384.48,196.147 382.875,199 C381.681,201.163 381.681,201.163 382.875,204.25 C383.246,205.158 383.617,206.065 384,207 C382.68,207 381.36,207 380,207 C378.951,205.364 377.951,203.695 377,202 C376.01,201.67 375.02,201.34 374,201 C374,203.31 374,205.62 374,208 C372.68,208 371.36,208 370,208 C370,201.4 370,194.8 370,188 z" fill="#2E4C6A"/>
    <path d="M156,163 C160.29,163 164.58,163 169,163 C168.926,167.164 168.843,171.325 168.738,175.488 C168.704,176.902 168.676,178.316 168.654,179.73 C168.62,181.771 168.567,183.811 168.512,185.852 C168.486,187.077 168.459,188.302 168.432,189.565 C167.965,193.278 166.854,195.775 165,199 C164.34,198.67 163.68,198.34 163,198 C163.33,197.01 163.66,196.02 164,195 C165.156,185.871 163.648,180.315 158.625,172.68 C156.572,169.294 156.089,166.907 156,163 z" fill="#F6E395"/>
    <path d="M286,188 C296.9,188 296.9,188 300,191 C300.478,194.212 300.48,196.147 298.875,199 C297.681,201.163 297.681,201.163 298.875,204.25 C299.246,205.158 299.617,206.065 300,207 C298.68,207 297.36,207 296,207 C295.34,205.02 294.68,203.04 294,201 C292.68,201 291.36,201 290,201 C290,202.98 290,204.96 290,207 C288.68,207 287.36,207 286,207 C286,200.73 286,194.46 286,188 z" fill="#284765"/>
    <path d="M511,156 C512.32,156 513.64,156 515,156 C515,158.64 515,161.28 515,164 C517.64,164 520.28,164 523,164 C523,161.36 523,158.72 523,156 C524.32,156 525.64,156 527,156 C527,162.6 527,169.2 527,176 C525.35,176 523.7,176 522,176 C522,173.36 522,170.72 522,168 C519.69,168 517.38,168 515,168 C515,170.64 515,173.28 515,176 C513.68,176 512.36,176 511,176 C511,169.4 511,162.8 511,156 z" fill="#3A5773"/>
    <path d="M225,61 C233.971,64.989 239.605,74.194 245,82 C239.857,86.429 239.857,86.429 236,87 C229.926,80.654 225,69.962 225,61 z" fill="#F9E597"/>
    <path d="M505,157 C507,159 507,159 507,163 C505.68,163 504.36,163 503,163 C503,162.01 503,161.02 503,160 C501.02,160 499.04,160 497,160 C496.973,161.625 496.954,163.25 496.938,164.875 C496.926,165.78 496.914,166.685 496.902,167.617 C496.838,170.017 496.838,170.017 498,172 C500.527,172.656 500.527,172.656 503,173 C503,171.68 503,170.36 503,169 C502.01,169 501.02,169 500,169 C500,168.01 500,167.02 500,166 C502.64,166 505.28,166 508,166 C508,168.64 508,171.28 508,174 C504.27,176.487 500.329,176.816 496,176 C493.5,174.188 493.5,174.188 492,171 C491.197,165.833 490.851,161.579 494,157.25 C498.223,155.49 500.549,155.978 505,157 z" fill="#3C5874"/>
    <path d="M562,188 C563.32,188 564.64,188 566,188 C566,193.28 566,198.56 566,204 C567.98,204 569.96,204 572,204 C572,198.72 572,193.44 572,188 C573.65,188 575.3,188 577,188 C577.081,190.229 577.139,192.458 577.188,194.688 C577.222,195.929 577.257,197.17 577.293,198.449 C576.98,202.245 576.408,204.076 574,207 C572.098,207.812 572.098,207.812 570.062,208 C569.393,208.082 568.724,208.165 568.035,208.25 C565.06,207.884 563.976,207.291 562,205 C561.504,202.091 561.625,199.252 561.75,196.312 C561.768,195.515 561.786,194.718 561.805,193.896 C561.852,191.93 561.924,189.965 562,188 z" fill="#46617B"/>
    <path d="M405,188 C406.32,188 407.64,188 409,188 C409,190.64 409,193.28 409,196 C411.64,196 414.28,196 417,196 C417,193.36 417,190.72 417,188 C418.32,188 419.64,188 421,188 C421,194.27 421,200.54 421,207 C419.68,207 418.36,207 417,207 C417,204.36 417,201.72 417,199 C414.36,199 411.72,199 409,199 C409,201.64 409,204.28 409,207 C407.68,207 406.36,207 405,207 C405,200.73 405,194.46 405,188 z" fill="#294866"/>
    <path d="M614,188 C615.32,188 616.64,188 618,188 C618.33,192.95 618.66,197.9 619,203 C620.65,203 622.3,203 624,203 C624.33,198.05 624.66,193.1 625,188 C626.32,188 627.64,188 629,188 C629.135,190.585 629.234,193.163 629.312,195.75 C629.375,196.844 629.375,196.844 629.439,197.961 C629.528,201.87 629.393,203.582 626.672,206.48 C623.398,208.343 621.705,208.709 618,208 C614.911,205.083 614.052,203.5 613.609,199.23 C613.636,197.882 613.683,196.534 613.75,195.188 C613.768,194.495 613.786,193.802 613.805,193.088 C613.852,191.391 613.923,189.695 614,188 z" fill="#2B4A67"/>
    <path d="M329,188 C331.438,189.312 331.438,189.312 333,191 C333,191.99 333,192.98 333,194 C329.976,193.412 326.982,192.773 324,192 C323.67,192.99 323.34,193.98 323,195 C324.64,195.402 324.64,195.402 326.312,195.812 C331.576,197.507 331.576,197.507 333,200 C332.875,203.062 332.875,203.062 332,206 C328.279,208.48 326.402,208.463 322,208 C319.562,206.188 319.562,206.188 318,204 C318,203.01 318,202.02 318,201 C319.32,201 320.64,201 322,201 C322.99,202.485 322.99,202.485 324,204 C326.584,204.25 326.584,204.25 329,204 C328.67,203.01 328.34,202.02 328,201 C325.689,199.95 323.354,198.95 321,198 C319,196 319,196 318.688,193.562 C319,191 319,191 320.062,189.188 C323.103,187.324 325.518,187.633 329,188 z" fill="#304E6B"/>
    <path d="M194,44 C199.42,44.555 203.543,46.485 208.312,48.938 C209.04,49.298 209.768,49.658 210.518,50.029 C215.869,52.737 215.869,52.737 217,55 C210.217,56.42 203.933,57.227 197,57 C196.497,55.209 195.998,53.417 195.5,51.625 C195.222,50.627 194.943,49.63 194.656,48.602 C194,46 194,46 194,44 z" fill="#FAE697"/>
    <path d="M650,188 C654.29,188 658.58,188 663,188 C663,188.99 663,189.98 663,191 C660.03,191 657.06,191 654,191 C654,192.65 654,194.3 654,196 C656.64,196 659.28,196 662,196 C662,196.99 662,197.98 662,199 C659.36,199 656.72,199 654,199 C654,200.65 654,202.3 654,204 C656.97,204 659.94,204 663,204 C663,205.32 663,206.64 663,208 C658.71,208 654.42,208 650,208 C650,201.4 650,194.8 650,188 z" fill="#33516E"/>
    <path d="M303,188 C307.29,188 311.58,188 316,188 C316,188.99 316,189.98 316,191 C313.03,191 310.06,191 307,191 C307,192.65 307,194.3 307,196 C309.64,196 312.28,196 315,196 C315,196.99 315,197.98 315,199 C312.36,199 309.72,199 307,199 C307,200.65 307,202.3 307,204 C309.97,204 312.94,204 316,204 C316,205.32 316,206.64 316,208 C311.71,208 307.42,208 303,208 C303,201.4 303,194.8 303,188 z" fill="#36536F"/>
    <path d="M520,188 C522.375,189.312 522.375,189.312 524,191 C524,191.99 524,192.98 524,194 C522.68,194 521.36,194 520,194 C519.67,193.34 519.34,192.68 519,192 C517.68,192 516.36,192 515,192 C514.67,192.99 514.34,193.98 514,195 C515.64,195.433 515.64,195.433 517.312,195.875 C521,197 521,197 524,199 C524.438,201.938 524.438,201.938 524,205 C521.77,207.573 520.375,207.953 517,208.375 C513.676,207.96 512.272,207.447 510,205 C510,203.68 510,202.36 510,201 C511.32,201 512.64,201 514,201 C514,201.99 514,202.98 514,204 C515.98,204 517.96,204 520,204 C519.358,200.922 519.358,200.922 517.188,200.043 C516.466,199.761 515.744,199.478 515,199.188 C512.812,198.184 512.812,198.184 511,197 C510,193.75 510,193.75 510,191 C513.303,187.951 515.549,187.444 520,188 z" fill="#284765"/>
    <path d="M336,188 C340.29,188 344.58,188 349,188 C349,188.99 349,189.98 349,191 C346.03,191 343.06,191 340,191 C340,192.65 340,194.3 340,196 C342.31,196 344.62,196 347,196 C347,196.99 347,197.98 347,199 C344.69,199 342.38,199 340,199 C340,200.65 340,202.3 340,204 C342.97,204 345.94,204 349,204 C349,205.32 349,206.64 349,208 C344.71,208 340.42,208 336,208 C336,201.4 336,194.8 336,188 z" fill="#33516D"/>
    <path d="M556,156 C558.875,157.875 558.875,157.875 561,160 C561,160.66 561,161.32 561,162 C557.667,161.333 554.333,160.667 551,160 C551.642,163.078 551.642,163.078 553.812,163.957 C554.534,164.239 555.256,164.522 556,164.812 C558.188,165.816 558.188,165.816 560,167 C561,170.25 561,170.25 561,173 C558.457,175.441 557.061,175.992 553.5,176.438 C550,176 550,176 547.562,174.125 C546,172 546,172 546,170 C547.32,170 548.64,170 550,170 C550.33,170.66 550.66,171.32 551,172 C553.527,172.656 553.527,172.656 556,173 C555.96,171.077 555.96,171.077 555,169 C552.083,167.333 552.083,167.333 549,166 C547,164 547,164 546.688,161.562 C547,159 547,159 548.125,157.188 C550.927,155.413 552.744,155.544 556,156 z" fill="#2E4D6A"/>
    <path d="M485,156 C486.32,156 487.64,156 489,156 C489.109,158.397 489.188,160.789 489.25,163.188 C489.3,164.198 489.3,164.198 489.352,165.229 C489.422,168.834 489.092,170.849 487.203,173.953 C485,176 485,176 481.5,176.562 C477.388,175.902 476.433,175.316 474,172 C473.709,169.263 473.617,166.961 473.75,164.25 C473.768,163.553 473.786,162.855 473.805,162.137 C473.852,160.424 473.923,158.712 474,157 C475.32,157 476.64,157 478,157 C478.33,161.62 478.66,166.24 479,171 C480.32,171.33 481.64,171.66 483,172 C484.996,170.004 484.41,166.183 484.562,163.438 C484.606,162.727 484.649,162.016 484.693,161.283 C484.8,159.522 484.9,157.761 485,156 z" fill="#294967"/>
    <path d="M380,156 C382.875,157.875 382.875,157.875 385,160 C385,160.66 385,161.32 385,162 C381.667,161.333 378.333,160.667 375,160 C375.647,163.074 375.647,163.074 377.812,163.992 C378.534,164.284 379.256,164.575 380,164.875 C383.843,166.686 383.843,166.686 385.25,169.5 C385,172 385,172 383.5,174.312 C380.091,176.614 378.035,176.576 374,176 C371.562,174.125 371.562,174.125 370,172 C370,171.34 370,170.68 370,170 C370.722,170.144 371.444,170.289 372.188,170.438 C373.58,170.716 373.58,170.716 375,171 C376.667,171.333 378.333,171.667 380,172 C379.29,168.721 379.29,168.721 376.062,167.438 C375.052,166.963 374.041,166.489 373,166 C371,164 371,164 370.688,161.562 C371,159 371,159 372.125,157.188 C374.927,155.413 376.744,155.544 380,156 z" fill="#294866"/>
    <path d="M398,188 C400.375,189.25 400.375,189.25 402,191 C402,192.32 402,193.64 402,195 C400.68,195 399.36,195 398,195 C397.67,194.01 397.34,193.02 397,192 C395.35,192.33 393.7,192.66 392,193 C392,196.63 392,200.26 392,204 C393.98,204 395.96,204 398,204 C398,203.01 398,202.02 398,201 C399.32,201 400.64,201 402,201 C401.52,205.56 401.52,205.56 399.375,207.375 C395.928,208.282 393.434,207.874 390,207 C387.046,203.998 386.546,201.65 386.5,197.5 C386.614,193.627 386.668,192.42 389.125,189.312 C392.454,187.793 394.383,187.461 398,188 z" fill="#34516E"/>
    <path d="M590,188 C592.875,189.812 592.875,189.812 595,192 C595,192.99 595,193.98 595,195 C593.68,195 592.36,195 591,195 C590.34,194.01 589.68,193.02 589,192 C586.416,191.75 586.416,191.75 584,192 C583.973,193.458 583.954,194.917 583.938,196.375 C583.926,197.187 583.914,197.999 583.902,198.836 C583.855,201.049 583.855,201.049 585,203 C586.65,203 588.3,203 590,203 C590.33,202.34 590.66,201.68 591,201 C592.32,201 593.64,201 595,201 C593.75,204.653 593.329,205.781 590,208 C587.062,208.375 587.062,208.375 584,208 C581.152,205.768 580.15,204.45 579,201 C578.63,196.001 578.92,193.028 582,189 C584.853,187.573 586.835,187.69 590,188 z" fill="#2C4B68"/>
    <path d="M256,167 C253.888,174.371 251.697,181.267 248,188 C246,187 246,187 244.875,183.625 C243.669,178.442 243.825,173.29 244,168 C248.071,167.224 251.861,166.954 256,167 z" fill="#F8E293"/>
    <path d="M247,87 C250.053,90.558 251.534,94.431 253.188,98.75 C253.596,99.796 253.596,99.796 254.014,100.863 C254.681,102.573 255.341,104.286 256,106 C254,107 254,107 250.188,106.25 C245.974,104.646 244.813,102.348 243,98.312 C242.306,96.552 241.63,94.784 241,93 C241.804,92.381 242.609,91.762 243.438,91.125 C246.039,89.258 246.039,89.258 247,87 z" fill="#F9E497"/>
    <path d="M286,156 C289.96,156 293.92,156 298,156 C298.33,157.32 298.66,158.64 299,160 C296.03,160 293.06,160 290,160 C290,161.65 290,163.3 290,165 C292.31,165 294.62,165 297,165 C297,165.99 297,166.98 297,168 C294.69,168 292.38,168 290,168 C290,170.64 290,173.28 290,176 C288.68,176 287.36,176 286,176 C286,169.4 286,162.8 286,156 z" fill="#33506D"/>
    <path d="M529,157 C533.95,157 538.9,157 544,157 C544,157.99 544,158.98 544,160 C542.35,160 540.7,160 539,160 C539,165.28 539,170.56 539,176 C537.35,176 535.7,176 534,176 C534,170.72 534,165.44 534,160 C532.35,160 530.7,160 529,160 C529,159.01 529,158.02 529,157 z" fill="#405C77"/>
    <path d="M526,188 C531.28,188 536.56,188 542,188 C542,189.32 542,190.64 542,192 C540.02,192 538.04,192 536,192 C536,197.28 536,202.56 536,208 C534.68,208 533.36,208 532,208 C532,202.39 532,196.78 532,191 C530.02,191 528.04,191 526,191 C526,190.01 526,189.02 526,188 z" fill="#314F6C"/>
    <path d="M459,188 C463.29,188 467.58,188 472,188 C472,188.99 472,189.98 472,191 C469.03,191 466.06,191 463,191 C463,192.98 463,194.96 463,197 C465.31,197 467.62,197 470,197 C470,197.66 470,198.32 470,199 C467.69,199 465.38,199 463,199 C463,201.64 463,204.28 463,207 C461.68,207 460.36,207 459,207 C459,200.73 459,194.46 459,188 z" fill="#254463"/>
    <path d="M301,156 C302.32,156 303.64,156 305,156 C305,161.28 305,166.56 305,172 C307.97,172 310.94,172 314,172 C314,173.32 314,174.64 314,176 C309.71,176 305.42,176 301,176 C301,169.4 301,162.8 301,156 z" fill="#395671"/>
    <path d="M596,188 C601.28,188 606.56,188 612,188 C612,188.99 612,189.98 612,191 C610.02,191 608.04,191 606,191 C606,196.28 606,201.56 606,207 C604.68,207 603.36,207 602,207 C602,201.72 602,196.44 602,191 C600.02,191 598.04,191 596,191 C596,190.01 596,189.02 596,188 z" fill="#284765"/>
    <path d="M440,188 C445,189 445,189 446.434,190.707 C446.765,191.402 447.096,192.097 447.438,192.812 C447.962,193.843 447.962,193.843 448.496,194.895 C449,197 449,197 448.098,199.262 C447.554,200.122 447.554,200.122 447,201 C446.34,199.68 445.68,198.36 445,197 C444.67,200.3 444.34,203.6 444,207 C442.68,207 441.36,207 440,207 C440,200.73 440,194.46 440,188 z" fill="#2B4A68"/>
    <path d="M353,157 C356.3,157 359.6,157 363,157 C362.67,157.66 362.34,158.32 362,159 C360.35,159 358.7,159 357,159 C357,163.62 357,168.24 357,173 C358.32,173 359.64,173 361,173 C361,173.99 361,174.98 361,176 C358.36,176 355.72,176 353,176 C353,169.73 353,163.46 353,157 z" fill="#274665"/>
    <path d="M335,188 C335.33,188 335.66,188 336,188 C336,194.6 336,201.2 336,208 C335.34,207.01 334.68,206.02 334,205 C333.34,205.33 332.68,205.66 332,206 C332.103,205.072 332.206,204.144 332.312,203.188 C332.209,202.136 332.106,201.084 332,200 C329.785,198.137 329.785,198.137 327,197 C325.855,196.412 325.855,196.412 324.688,195.812 C323.852,195.41 323.852,195.41 323,195 C323.33,193.68 323.66,192.36 324,191 C327.147,191.699 330.026,192.761 333,194 C333.66,192.02 334.32,190.04 335,188 z" fill="#E2E7EB"/>
    <path d="M462.438,159.812 C465,160 465,160 467,162 C467.266,163.875 467.266,163.875 467.25,166 C467.255,166.701 467.26,167.402 467.266,168.125 C467,170 467,170 465,172 C462.438,172.188 462.438,172.188 460,172 C459,171 459,171 458.867,168.75 C458.87,167.842 458.872,166.935 458.875,166 C458.872,165.092 458.87,164.185 458.867,163.25 C459.053,160.098 459.281,160.055 462.438,159.812 z" fill="#F2F4F6"/>
    <path d="M322.438,159.812 C325,160 325,160 327,162 C327.266,163.875 327.266,163.875 327.25,166 C327.255,166.701 327.26,167.402 327.266,168.125 C327,170 327,170 325,172 C322.438,172.188 322.438,172.188 320,172 C319,171 319,171 318.867,168.75 C318.87,167.842 318.872,166.935 318.875,166 C318.872,165.092 318.87,164.185 318.867,163.25 C319.053,160.098 319.281,160.055 322.438,159.812 z" fill="#F3F5F7"/>
    <path d="M341.438,159.812 C344,160 344,160 346,162 C346.315,166.336 346.449,168.327 344,172 C341.438,172.25 341.438,172.25 339,172 C338,171 338,171 337.867,168.75 C337.87,167.842 337.872,166.935 337.875,166 C337.872,165.092 337.87,164.185 337.867,163.25 C338.053,160.098 338.281,160.055 341.438,159.812 z" fill="#F4F5F7"/>
    <path d="M520,188 C522.375,189.312 522.375,189.312 524,191 C524,191.99 524,192.98 524,194 C522.68,194 521.36,194 520,194 C519.67,193.34 519.34,192.68 519,192 C517.68,192 516.36,192 515,192 C514.67,192.99 514.34,193.98 514,195 C515.32,195.66 516.64,196.32 518,197 C518,197.99 518,198.98 518,200 C512.25,198.375 512.25,198.375 510,195 C510.188,192.438 510.188,192.438 511,190 C514.489,187.674 515.897,187.581 520,188 z" fill="#304E6B"/>
    <path d="M458,157 C458.99,157.33 459.98,157.66 461,158 C460.67,158.99 460.34,159.98 460,161 C459.932,162.728 459.915,164.458 459.938,166.188 C459.951,167.539 459.951,167.539 459.965,168.918 C459.976,169.605 459.988,170.292 460,171 C462.475,171.99 462.475,171.99 465,173 C464.67,173.66 464.34,174.32 464,175 C461.188,175.25 461.188,175.25 458,175 C455.923,172.889 455.081,171.498 454.602,168.562 C454.609,167.717 454.617,166.871 454.625,166 C454.617,165.154 454.61,164.309 454.602,163.438 C455.071,160.566 456.105,159.166 458,157 z" fill="#284765"/>
    <path d="M328,198 C329.32,198.33 330.64,198.66 332,199 C332.75,201.25 332.75,201.25 333,204 C331.5,206.312 331.5,206.312 329,208 C324.917,208.583 322.912,208.678 319.562,206.188 C318,204 318,204 318,201 C319.32,201 320.64,201 322,201 C322.99,202.485 322.99,202.485 324,204 C326.584,204.25 326.584,204.25 329,204 C328.67,202.02 328.34,200.04 328,198 z" fill="#2A4967"/>
    <path d="M432,188 C433.32,188 434.64,188 436,188 C436,194.27 436,200.54 436,207 C434.68,207 433.36,207 432,207 C432,200.73 432,194.46 432,188 z" fill="#284765"/>
    <path d="M357,160 C359.938,160.375 359.938,160.375 363,161 C364.385,163.771 364.188,165.933 364,169 C363.01,170.485 363.01,170.485 362,172 C360.35,172 358.7,172 357,172 C357,168.04 357,164.08 357,160 z" fill="#EDF0F3"/>
    <path d="M485,156 C486.32,156 487.64,156 489,156 C489.081,158.417 489.141,160.832 489.188,163.25 C489.225,164.273 489.225,164.273 489.264,165.316 C489.311,168.592 489.211,170.653 487.488,173.484 C486.997,173.985 486.506,174.485 486,175 C485.01,174.67 484.02,174.34 483,174 C483.33,173.67 483.66,173.34 484,173 C484.237,170.141 484.422,167.301 484.562,164.438 C484.606,163.631 484.649,162.825 484.693,161.994 C484.8,159.996 484.9,157.998 485,156 z" fill="#34526E"/>
    <path d="M562,188 C563.32,188 564.64,188 566,188 C566.33,193.94 566.66,199.88 567,206 C565.35,205.67 563.7,205.34 562,205 C562,199.39 562,193.78 562,188 z" fill="#33516D"/>
    <path d="M424,160 C429,161 429,161 430,162 C430.273,167.736 430.273,167.736 430,170 C429.34,170.66 428.68,171.32 428,172 C426.68,172 425.36,172 424,172 C424,168.04 424,164.08 424,160 z" fill="#FDFDFE"/>
    <path d="M649,188 C649.33,188 649.66,188 650,188 C650,194.6 650,201.2 650,208 C649.01,208 648.02,208 647,208 C643.948,202.628 643.948,202.628 644.188,199.75 C645,198 645,198 647,196 C647.33,196 647.66,196 648,196 C648.33,193.36 648.66,190.72 649,188 z" fill="#EDF0F3"/>
    <path d="M398,188 C400.375,189.25 400.375,189.25 402,191 C402,192.32 402,193.64 402,195 C400.68,195 399.36,195 398,195 C397.67,194.01 397.34,193.02 397,192 C393.976,192.588 390.982,193.227 388,194 C388.312,192.125 388.312,192.125 389,190 C392.489,187.674 393.897,187.581 398,188 z" fill="#2B4A68"/>
    <path d="M500,166 C502.64,166 505.28,166 508,166 C508,168.64 508,171.28 508,174 C505.291,175.354 502.991,175.065 500,175 C500.66,174.34 501.32,173.68 502,173 C502.643,170.931 502.643,170.931 503,169 C502.01,169 501.02,169 500,169 C500,168.01 500,167.02 500,166 z" fill="#3C5974"/>
    <path d="M334,160 C334.99,160.33 335.98,160.66 337,161 C337.086,161.699 337.173,162.397 337.262,163.117 C337.682,165.84 338.137,168.382 339,171 C341.457,172.756 341.457,172.756 344,173 C343.67,173.66 343.34,174.32 343,175 C340.188,175.25 340.188,175.25 337,175 C334.704,172.747 334.044,171.421 333.707,168.203 C333.742,167.229 333.777,166.254 333.812,165.25 C333.84,164.265 333.867,163.28 333.895,162.266 C333.929,161.518 333.964,160.77 334,160 z" fill="#254563"/>
    <path d="M494,161 C494.33,161 494.66,161 495,161 C495.195,162.986 495.391,164.971 495.586,166.957 C495.927,169.3 495.927,169.3 498,172 C499.316,172.699 500.65,173.367 502,174 C502.66,174.66 503.32,175.32 504,176 C496.551,176.366 496.551,176.366 494.254,174.84 C492.511,172.283 492.669,170.44 492.75,167.375 C492.765,166.393 492.781,165.41 492.797,164.398 C493,162 493,162 494,161 z" fill="#2D4B69"/>
    <path d="M215,215 C218.375,215.547 220.082,216.055 223,218 C221.879,218.839 220.753,219.671 219.625,220.5 C218.999,220.964 218.372,221.428 217.727,221.906 C216,223 216,223 214,223 C214,223.66 214,224.32 214,225 C213.34,224.67 212.68,224.34 212,224 C212.99,221.03 213.98,218.06 215,215 z" fill="#F8E297"/>
    <path d="M167,181 C167.33,181 167.66,181 168,181 C168.554,193.67 168.554,193.67 165,199 C164.34,198.67 163.68,198.34 163,198 C163.66,193.71 164.32,189.42 165,185 C165.66,185 166.32,185 167,185 C167,183.68 167,182.36 167,181 z" fill="#DDC784"/>
    <path d="M514,188 C517.328,187.773 519.418,187.678 522.375,189.312 C524,191 524,191 524,194 C522.68,194 521.36,194 520,194 C519.67,193.34 519.34,192.68 519,192 C517.35,192 515.7,192 514,192 C514,190.68 514,189.36 514,188 z" fill="#284766"/>
    <path d="M548,191 C549.666,190.957 551.334,190.959 553,191 C554,192 554,192 554.062,194.562 C554.042,195.367 554.021,196.171 554,197 C552.02,197 550.04,197 548,197 C548,195.02 548,193.04 548,191 z" fill="#DCE2E7"/>
    <path d="M478,191 C479.666,190.957 481.334,190.959 483,191 C484,192 484,192 484.062,194.562 C484.042,195.367 484.021,196.171 484,197 C482.02,197 480.04,197 478,197 C478,195.02 478,193.04 478,191 z" fill="#DDE2E7"/>
    <path d="M510,201 C511.32,201 512.64,201 514,201 C514,201.99 514,202.98 514,204 C515.65,204 517.3,204 519,204 C517.68,204.33 516.36,204.66 515,205 C515,205.66 515,206.32 515,207 C516.65,207 518.3,207 520,207 C520,207.33 520,207.66 520,208 C516.71,208.224 514.577,208.304 511.625,206.75 C510,205 510,205 510,201 z" fill="#506A82"/>
    <path d="M370,170 C374.51,170.531 377.384,172.309 381,175 C381,175.33 381,175.66 381,176 C374.636,176.49 374.636,176.49 371.562,174.125 C370,172 370,172 370,170 z" fill="#395672"/>
    <path d="M591,201 C592.32,201 593.64,201 595,201 C593.75,204.653 593.329,205.781 590,208 C586.812,208.125 586.812,208.125 584,208 C584,207.67 584,207.34 584,207 C585.65,207 587.3,207 589,207 C589,206.34 589,205.68 589,205 C588.01,204.67 587.02,204.34 586,204 C586.639,203.876 587.279,203.753 587.938,203.625 C588.958,203.316 588.958,203.316 590,203 C590.33,202.34 590.66,201.68 591,201 z" fill="#405C76"/>
    <path d="M290,191 C292.97,191.495 292.97,191.495 296,192 C295.67,193.65 295.34,195.3 295,197 C293.35,197 291.7,197 290,197 C290,195.02 290,193.04 290,191 z" fill="#E8ECEF"/>
    <path d="M550,156 C553.855,155.641 555.578,155.725 558.875,157.875 C559.576,158.576 560.278,159.277 561,160 C561,160.66 561,161.32 561,162 C557.656,161.443 554.967,160.648 552,159 C552.33,158.67 552.66,158.34 553,158 C552.01,157.34 551.02,156.68 550,156 z" fill="#415D77"/>
    <path d="M374,156 C377.855,155.641 379.578,155.725 382.875,157.875 C383.576,158.576 384.277,159.277 385,160 C385,160.66 385,161.32 385,162 C381.656,161.443 378.967,160.648 376,159 C376.33,158.67 376.66,158.34 377,158 C376.01,157.34 375.02,156.68 374,156 z" fill="#415D78"/>
    <path d="M318,201 C319.32,201 320.64,201 322,201 C324,204 324,204 324,207 C325.65,207 327.3,207 329,207 C329,207.33 329,207.66 329,208 C322.656,208.488 322.656,208.488 319.562,206.188 C318,204 318,204 318,201 z" fill="#48637C"/>
    <path d="M324,191 C327.147,191.699 330.026,192.761 333,194 C332.01,194.33 331.02,194.66 330,195 C330,195.66 330,196.32 330,197 C325.25,196.125 325.25,196.125 323,195 C323.33,193.68 323.66,192.36 324,191 z" fill="#ECEFF2"/>
    <path d="M513,198 C516.465,199.485 516.465,199.485 520,201 C520,201.99 520,202.98 520,204 C518.02,204 516.04,204 514,204 C514,203.01 514,202.02 514,201 C513.01,200.67 512.02,200.34 511,200 C511.66,200 512.32,200 513,200 C513,199.34 513,198.68 513,198 z" fill="#F0F3F4"/>
    <path d="M374,192 C375.98,192 377.96,192 380,192 C379.67,193.65 379.34,195.3 379,197 C377.35,197 375.7,197 374,197 C374,195.35 374,193.7 374,192 z" fill="#F2F4F6"/>
    <path d="M637,192 C638.65,192 640.3,192 642,192 C642.562,193.938 642.562,193.938 643,196 C642,197 642,197 639.438,197.062 C638.231,197.032 638.231,197.032 637,197 C637,195.35 637,193.7 637,192 z" fill="#F2F4F6"/>
    <path d="M442,160 C443.65,160 445.3,160 447,160 C447.562,161.938 447.562,161.938 448,164 C447,165 447,165 444.438,165.062 C443.231,165.032 443.231,165.032 442,165 C442,163.35 442,161.7 442,160 z" fill="#F8F9FA"/>
    <path d="M567,204 C569.375,203.812 569.375,203.812 572,204 C572.66,204.99 573.32,205.98 574,207 C568.627,207.969 568.627,207.969 566,208 C564,206.562 564,206.562 563,205 C564.32,205.33 565.64,205.66 567,206 C567,205.34 567,204.68 567,204 z" fill="#425E78"/>
    <path d="M337,157 C337.99,157.33 338.98,157.66 340,158 C339.34,161.63 338.68,165.26 338,169 C337.67,169 337.34,169 337,169 C336.856,167.907 336.711,166.814 336.562,165.688 C336.117,162.069 336.117,162.069 335,159 C335.66,158.34 336.32,157.68 337,157 z" fill="#405C76"/>
    <path d="M627,203 C626.625,204.938 626.625,204.938 626,207 C623.291,208.354 620.991,208.065 618,208 C618,207.67 618,207.34 618,207 C619.65,207 621.3,207 623,207 C623,206.34 623,205.68 623,205 C622.01,204.67 621.02,204.34 620,204 C622.491,203.313 624.379,203 627,203 z" fill="#49647D"/>
    <text transform="matrix(1, 0, 0, 1, 400.683, 166.691)">
      <tspan x="-8.004" y="7.5" font-family="ArialMT" font-size="24" fill="#33506E">&amp;</tspan>
    </text>
    <path d="M367.606,208.156 L364.274,208.156 L362.949,203.469 L356.885,203.469 L355.632,208.156 L352.383,208.156 L358.292,187.522 L361.531,187.522 z M361.966,199.992 L359.876,192.335 L357.826,199.992 z" fill="#33506E"/>
    <text transform="matrix(1, 0, 0, 1, 405.334, 156.493)"/>
    <path d="M506.834,208.736 L503.501,208.736 L502.176,204.049 L496.112,204.049 L494.86,208.736 L491.61,208.736 L497.519,188.102 L500.759,188.102 z M501.193,200.572 L499.103,192.916 L497.054,200.572 z" fill="#33506E"/>
  </g>
</svg>
