<?xml version="1.0" encoding="utf-8"?><!-- Uploaded to: SVG Repo, www.svgrepo.com, Generator: SVG Repo Mixer Tools -->
<svg width="800px" height="800px" viewBox="0 -0.5 25 25" fill="none" xmlns="http://www.w3.org/2000/svg">
<path d="M19.5 19H9.5C7.29086 19 5.5 17.2091 5.5 15V5" stroke="#000000" stroke-width="1.5" stroke-linecap="round" stroke-linejoin="round"/>
<path d="M15.942 13.25C15.5278 13.25 15.192 13.5858 15.192 14C15.192 14.4142 15.5278 14.75 15.942 14.75V13.25ZM19.5 14.75C19.9142 14.75 20.25 14.4142 20.25 14C20.25 13.5858 19.9142 13.25 19.5 13.25V14.75ZM18.75 14C18.75 14.4142 19.0858 14.75 19.5 14.75C19.9142 14.75 20.25 14.4142 20.25 14H18.75ZM20.25 10.908C20.25 10.4938 19.9142 10.158 19.5 10.158C19.0858 10.158 18.75 10.4938 18.75 10.908H20.25ZM18.9989 14.558C19.3071 14.8348 19.7813 14.8093 20.058 14.5011C20.3348 14.1929 20.3093 13.7187 20.0011 13.442L18.9989 14.558ZM15.039 9.994L15.5401 9.43598C15.5328 9.4294 15.5253 9.42298 15.5178 9.4167L15.039 9.994ZM13.6 9.942L13.1641 9.33157L13.1546 9.33856L13.6 9.942ZM12.638 10.652L13.0744 11.2621L13.0834 11.2554L12.638 10.652ZM11.1 10.494L10.5161 10.9647C10.5265 10.9777 10.5374 10.9903 10.5488 11.0026L11.1 10.494ZM10.983 10.364L11.5124 9.83272C11.5083 9.82871 11.5043 9.82474 11.5002 9.82081L10.983 10.364ZM9.01715 7.45681C8.71716 7.1712 8.24243 7.18285 7.95681 7.48285C7.6712 7.78284 7.68285 8.25757 7.98285 8.54319L9.01715 7.45681ZM15.942 14.75H19.5V13.25H15.942V14.75ZM20.25 14V10.908H18.75V14H20.25ZM20.0011 13.442L15.5401 9.43598L14.5379 10.552L18.9989 14.558L20.0011 13.442ZM15.5178 9.4167C14.8435 8.85747 13.8771 8.82255 13.1641 9.33164L14.0359 10.5524C14.1947 10.4389 14.41 10.4467 14.5602 10.5713L15.5178 9.4167ZM13.1546 9.33856L12.1926 10.0486L13.0834 11.2554L14.0454 10.5454L13.1546 9.33856ZM12.2017 10.042C12.0302 10.1646 11.7942 10.1404 11.6512 9.98545L10.5488 11.0026C11.2047 11.7136 12.2875 11.8248 13.0743 11.262L12.2017 10.042ZM11.6839 10.0233C11.6302 9.95672 11.573 9.89309 11.5124 9.83272L10.4536 10.8953C10.4757 10.9173 10.4965 10.9404 10.5161 10.9647L11.6839 10.0233ZM11.5002 9.82081L9.01715 7.45681L7.98285 8.54319L10.4658 10.9072L11.5002 9.82081Z" fill="#000000"/>
</svg>