<?xml version="1.0" encoding="UTF-8"?>
<!DOCTYPE svg PUBLIC "-//W3C//DTD SVG 1.1//EN" "http://www.w3.org/Graphics/SVG/1.1/DTD/svg11.dtd">
<svg version="1.1" xmlns="http://www.w3.org/2000/svg" xmlns:xlink="http://www.w3.org/1999/xlink" x="0" y="0" width="200" height="200" viewBox="0, 0, 200, 200">
  <g id="Background">
    <rect x="0" y="0" width="200" height="200" fill="#FFFFFF"/>
  </g>
  <defs>
    <clipPath id="Clip_1">
      <path d="M-398.236,-186.307 L-49.236,-186.307 L-49.236,206.693 L-398.236,206.693 z"/>
    </clipPath>
  </defs>
  <g id="Layer_1">
    <g>
      <path d="M145.307,56.963 L145.307,153.08" fill-opacity="0" stroke="#02B7C2" stroke-width="8"/>
      <path d="M152.507,56.963 L145.307,37.763 L138.107,56.963 M145.307,56.963 L145.307,37.763" fill-opacity="0" stroke="#02B7C2" stroke-width="8" stroke-opacity="1"/>
      <path d="M138.107,153.08 L145.307,172.28 L152.507,153.08 M145.307,153.08 L145.307,172.28" fill-opacity="0" stroke="#02B7C2" stroke-width="8" stroke-opacity="1"/>
    </g>
    <path d="M111.8,4.189 L111.8,21.084 L181.066,21.084 L181.066,4.527" fill-opacity="0" stroke="#016576" stroke-width="8"/>
    <path d="M123.626,25.138 L135.053,25.138" fill-opacity="0" stroke="#016576" stroke-width="8" stroke-linecap="round"/>
    <path d="M157.816,25.072 L166.939,25.072" fill-opacity="0" stroke="#016576" stroke-width="8" stroke-linecap="round"/>
    <path d="M20.8,188.679 L185.827,188.679" fill-opacity="0" stroke="#016576" stroke-width="8"/>
    <g id="Layer_1">
      <path d="M-98.775,-64.018 C-98.775,-58.713 -103.076,-54.416 -108.381,-54.416 C-113.681,-54.416 -117.982,-58.713 -117.982,-64.018 C-117.982,-69.323 -113.681,-73.619 -108.381,-73.619 C-103.076,-73.619 -98.775,-69.323 -98.775,-64.018" fill="#00A3B5"/>
      <path d="M-189.865,67.255 C-189.865,75.748 -196.748,82.634 -205.244,82.634 C-213.736,82.634 -220.623,75.748 -220.623,67.255 C-220.623,58.759 -213.736,51.877 -205.244,51.877 C-196.748,51.877 -189.865,58.759 -189.865,67.255" fill="#32C7C3"/>
      <path d="M-152.736,109.502 C-152.736,124.138 -164.603,136.009 -179.244,136.009 C-193.881,136.009 -205.748,124.138 -205.748,109.502 C-205.748,94.861 -193.881,82.994 -179.244,82.994 C-164.603,82.994 -152.736,94.861 -152.736,109.502" fill="#32C7C3"/>
      <path d="M-179.982,26.345 C-179.982,33.513 -185.795,39.322 -192.963,39.322 C-200.131,39.322 -205.939,33.513 -205.939,26.345 C-205.939,19.177 -200.131,13.369 -192.963,13.369 C-185.795,13.369 -179.982,19.177 -179.982,26.345" fill="#00B7C2"/>
      <path d="M-142.943,-9.584 C-142.943,3.033 -153.174,13.267 -165.795,13.267 C-178.416,13.267 -188.646,3.033 -188.646,-9.584 C-188.646,-22.205 -178.416,-32.436 -165.795,-32.436 C-153.174,-32.436 -142.943,-22.205 -142.943,-9.584" fill="#00B7C2"/>
      <path d="M-127.24,156.482 C-127.24,168.185 -136.728,177.673 -148.431,177.673 C-160.138,177.673 -169.627,168.185 -169.627,156.482 C-169.627,144.775 -160.138,135.287 -148.431,135.287 C-136.728,135.287 -127.24,144.775 -127.24,156.482" fill="#6CCDC3"/>
      <path d="M-58.873,-11.897 C-58.873,7.416 -74.529,23.072 -93.841,23.072 C-113.158,23.072 -128.81,7.416 -128.81,-11.897 C-128.81,-31.213 -113.158,-46.866 -93.841,-46.866 C-74.529,-46.866 -58.873,-31.213 -58.873,-11.897" fill="#00A3B5"/>
      <path d="M-113.361,51.213 C-113.361,68.791 -127.607,83.037 -145.181,83.037 C-162.759,83.037 -177.006,68.791 -177.006,51.213 C-177.006,33.638 -162.759,19.392 -145.181,19.392 C-127.607,19.392 -113.361,33.638 -113.361,51.213" fill="#00B7C2"/>
      <path d="M-175.849,171.869 C-175.849,188.83 -189.603,202.58 -206.564,202.58 C-223.529,202.58 -237.279,188.83 -237.279,171.869 C-237.279,154.904 -223.529,141.154 -206.564,141.154 C-189.603,141.154 -175.849,154.904 -175.849,171.869" fill="#6CCDC3"/>
      <path d="M-49.998,56.838 C-49.998,71.771 -62.103,83.881 -77.037,83.881 C-91.97,83.881 -104.08,71.771 -104.08,56.838 C-104.08,41.904 -91.97,29.798 -77.037,29.798 C-62.103,29.798 -49.998,41.904 -49.998,56.838" fill="#00B7C2"/>
      <path d="M-81.654,112.213 C-81.654,128.255 -94.658,141.259 -110.701,141.259 C-126.744,141.259 -139.752,128.255 -139.752,112.213 C-139.752,96.17 -126.744,83.162 -110.701,83.162 C-94.658,83.162 -81.654,96.17 -81.654,112.213" fill="#32C7C3"/>
      <path d="M-215.654,109.732 C-215.654,124.658 -227.752,136.759 -242.681,136.759 C-257.607,136.759 -269.709,124.658 -269.709,109.732 C-269.709,94.806 -257.607,82.705 -242.681,82.705 C-227.752,82.705 -215.654,94.806 -215.654,109.732" fill="#6CCDC3"/>
      <path d="M-252.041,167.486 C-252.041,188.904 -269.408,206.267 -290.826,206.267 C-312.248,206.267 -329.611,188.904 -329.611,167.486 C-329.611,146.064 -312.248,128.701 -290.826,128.701 C-269.408,128.701 -252.041,146.064 -252.041,167.486" fill="#9CD6C4"/>
      <g clip-path="url(#Clip_1)">
        <path d="M-377.06,-186.307 L-358.076,-186.307 L-358.076,-167.319 L-377.06,-167.319 z" fill="#006576"/>
      </g>
      <path d="M-362.943,-157.873 L-341.877,-157.873 L-341.877,-136.807 L-362.943,-136.807 z" fill="#006576"/>
      <path d="M-398.236,-157.229 L-372.291,-157.229 L-372.291,-131.284 L-398.236,-131.284 z" fill="#006576"/>
      <path d="M-357.142,-97.784 L-370.427,-97.784 C-373.591,-97.784 -376.154,-100.346 -376.154,-103.51 L-376.154,-116.795 C-376.154,-119.959 -373.591,-122.522 -370.427,-122.522 L-357.142,-122.522 C-353.982,-122.522 -351.42,-119.959 -351.42,-116.795 L-351.42,-103.51 C-351.42,-100.346 -353.982,-97.784 -357.142,-97.784" fill="#00758C"/>
      <path d="M-319.763,-101.229 L-334.435,-101.229 C-338.517,-101.229 -341.83,-104.541 -341.83,-108.623 L-341.83,-123.295 C-341.83,-127.377 -338.517,-130.686 -334.435,-130.686 L-319.763,-130.686 C-315.681,-130.686 -312.369,-127.377 -312.369,-123.295 L-312.369,-108.623 C-312.369,-104.541 -315.681,-101.229 -319.763,-101.229" fill="#00758C"/>
      <path d="M-278.482,-68.733 L-292.591,-68.733 C-298.677,-68.733 -303.611,-73.67 -303.611,-79.756 L-303.611,-93.866 C-303.611,-99.952 -298.677,-104.889 -292.591,-104.889 L-278.482,-104.889 C-272.392,-104.889 -267.459,-99.952 -267.459,-93.866 L-267.459,-79.756 C-267.459,-73.67 -272.392,-68.733 -278.482,-68.733" fill="#007B92"/>
      <path d="M-242.029,-80.784 L-247.791,-80.784 C-256.576,-80.784 -263.701,-87.909 -263.701,-96.698 L-263.701,-102.455 C-263.701,-111.245 -256.576,-118.369 -247.791,-118.369 L-242.029,-118.369 C-233.24,-118.369 -226.119,-111.245 -226.119,-102.455 L-226.119,-96.698 C-226.119,-87.909 -233.24,-80.784 -242.029,-80.784" fill="#0094AB"/>
      <path d="M-210.052,-27.424 L-210.474,-27.424 C-223.341,-27.424 -233.767,-37.854 -233.767,-50.717 L-233.767,-51.139 C-233.767,-64.002 -223.341,-74.432 -210.474,-74.432 L-210.052,-74.432 C-197.189,-74.432 -186.759,-64.002 -186.759,-51.139 L-186.759,-50.717 C-186.759,-37.854 -197.189,-27.424 -210.052,-27.424" fill="#00A3B5"/>
      <path d="M-156.838,-45.686 C-170.732,-45.686 -181.994,-56.948 -181.994,-70.842 C-181.994,-84.737 -170.732,-95.998 -156.838,-95.998 C-142.943,-95.998 -131.681,-84.737 -131.681,-70.842 C-131.681,-56.948 -142.943,-45.686 -156.838,-45.686" fill="#00A3B5"/>
      <path d="M-293.045,-113.975 L-299.056,-113.975 C-301.424,-113.975 -303.341,-115.893 -303.341,-118.26 L-303.341,-123.573 C-303.341,-125.94 -301.424,-127.858 -299.056,-127.858 L-293.045,-127.858 C-290.681,-127.858 -288.759,-125.94 -288.759,-123.573 L-288.759,-118.26 C-288.759,-115.893 -290.681,-113.975 -293.045,-113.975" fill="#007B92"/>
      <path d="M-270.33,-109.432 L-274.361,-109.432 C-277.275,-109.432 -279.634,-111.791 -279.634,-114.705 L-279.634,-118.037 C-279.634,-120.952 -277.275,-123.311 -274.361,-123.311 L-270.33,-123.311 C-267.416,-123.311 -265.052,-120.952 -265.052,-118.037 L-265.052,-114.705 C-265.052,-111.791 -267.416,-109.432 -270.33,-109.432" fill="#0094AB"/>
      <path d="M-248.564,-53.307 L-255.591,-53.307 C-259.131,-53.307 -261.998,-56.178 -261.998,-59.717 L-261.998,-65.795 C-261.998,-69.334 -259.131,-72.202 -255.591,-72.202 L-248.564,-72.202 C-245.025,-72.202 -242.154,-69.334 -242.154,-65.795 L-242.154,-59.717 C-242.154,-56.178 -245.025,-53.307 -248.564,-53.307" fill="#0094AB"/>
      <path d="M-200.533,-82.424 L-204.963,-82.424 C-211.556,-82.424 -216.9,-87.768 -216.9,-94.362 L-216.9,-97.436 C-216.9,-104.03 -211.556,-109.377 -204.963,-109.377 L-200.533,-109.377 C-193.939,-109.377 -188.591,-104.03 -188.591,-97.436 L-188.591,-94.362 C-188.591,-87.768 -193.939,-82.424 -200.533,-82.424" fill="#00A3B5"/>
      <path d="M-318.123,-79.366 L-324.197,-79.366 C-326.545,-79.366 -328.451,-81.272 -328.451,-83.619 L-328.451,-88.995 C-328.451,-91.346 -326.545,-93.248 -324.197,-93.248 L-318.123,-93.248 C-315.775,-93.248 -313.869,-91.346 -313.869,-88.995 L-313.869,-83.619 C-313.869,-81.272 -315.775,-79.366 -318.123,-79.366" fill="#00758C"/>
    </g>
  </g>
</svg>
