<?xml version="1.0" encoding="utf-8"?>
<!-- Uploaded to: SVG Repo, www.svgrepo.com, Generator: SVG Repo Mixer Tools -->
<svg width="800px" height="800px" viewBox="0 -29.5 1083 1083" fill="#000000" class="icon"  version="1.1" xmlns="http://www.w3.org/2000/svg"><path d="M692.071102 895.024886l-38.614525-15.601829c-36.534281-14.821737-83.729812-14.821737-120.394109 0l-38.614525 15.601829c-17.682072 7.150838-44.335196 7.150838-61.887252 0l-38.614525-15.601829c-36.534281-14.821737-83.729812-14.821737-120.394109 0l-50.445912 20.412392a39.030574 39.030574 0 0 0-21.582529 50.835958 39.134586 39.134586 0 0 0 50.835957 21.582529l50.445912-20.412392c17.682072-7.150838 44.20518-7.150838 61.887252 0l38.614526 15.601828c18.332148 7.410868 39.264601 11.051295 60.197054 11.051295s41.864906-3.640427 60.197054-11.051295l38.614525-15.601828c17.682072-7.150838 44.20518-7.150838 61.887253 0l38.614525 15.601828c20.022346 8.060945 42.644997-1.560183 50.835957-21.582529 8.060945-20.022346-1.560183-42.775013-21.582529-50.835957zM444.132047 746.547486l-38.614525-13.781615c-35.624175-12.741493-81.649568-12.741493-117.403759 0l-50.445911 18.072118a38.887557 38.887557 0 0 0-23.532758 49.795835c7.280853 20.282377 29.513459 30.943626 49.795835 23.532758L314.376841 806.094464c18.462164-6.630777 46.415439-6.630777 64.877603 0l38.614525 13.781615c17.812087 6.370747 38.224479 9.621127 58.636872 9.621128 20.412392 0 40.824784-3.250381 58.636871-9.621128L573.757237 806.094464c3.900457-1.430168 8.320975-2.470289 13.261554-3.380396 21.192483-3.640427 35.494159-23.792788 31.853733-44.985272a39.004571 39.004571 0 0 0-44.985272-31.853733c-9.361097 1.560183-18.202133 3.900457-26.393093 6.760793l-38.614525 13.781615c-18.462164 6.760792-46.285424 6.760792-64.747587 0.130015zM501.858812 596.639919c-15.731844 5.200609-39.524632 5.200609-55.386491 0l-33.803961-11.051295c-31.593702-10.401219-72.418487-10.401219-104.012189 0l-44.075165 14.431691a39.199594 39.199594 0 0 0-24.962926 49.275774 39.199594 39.199594 0 0 0 49.275775 24.962926l44.075165-14.431691c15.731844-5.200609 39.524632-5.200609 55.38649 0l33.803962 11.051295c15.731844 5.200609 33.933977 7.800914 52.006094 7.800914s36.144236-2.600305 52.006095-7.800914a39.199594 39.199594 0 0 0 24.962925-49.275775 39.147588 39.147588 0 0 0-49.275774-24.962925zM302.805485 523.18131h102.582021c21.582529 0 39.004571-17.422042 39.004571-39.004571s-17.422042-39.004571-39.004571-39.00457h-102.582021c-21.582529 0-39.004571 17.422042-39.004571 39.00457s17.422042 39.004571 39.004571 39.004571zM430.870493 350.001016h2.210259l439.711528 4.550533c21.582529 0.650076 39.134586-17.031996 39.394617-38.614525s-17.031996-39.134586-38.614525-39.394617l-92.570848-0.910106L689.080752 191.772473l168.239715-102.842051 158.488573 171.620111c7.670899 8.320975 18.202133 12.611478 28.733367 12.611478 9.491112 0 18.982224-3.380396 26.393093-10.401219a39.030574 39.030574 0 0 0 2.210259-55.12646L892.944642 12.611478a39.160589 39.160589 0 0 0-49.015744-6.890808l-214.915185 131.315389-36.664297-33.413916c-9.751143-8.841036-23.272727-12.221432-36.01422-8.971051l-139.636364 36.01422-61.757237-55.646521c-13.001524-11.701371-32.243779-13.261554-47.065516-3.900457L223.626206 124.684611l-64.227526-51.095987c-14.431691-11.571356-35.104114-11.311326-49.275775 0.520061l-96.081259 80.2194A39.108583 39.108583 0 0 0 9.101067 209.32453a39.108583 39.108583 0 0 0 54.996444 4.940579l71.638396-59.807008 125.204672 99.59167c7.150838 5.72067 15.731844 8.45099 24.312849 8.450991 11.441341 0 22.882682-5.070594 30.553581-14.691722 13.391569-16.901981 10.661249-41.344845-6.240732-54.86643l-21.192483-16.90198 36.534281-23.272728 52.656171 47.455562 56.036567 71.76841c-131.315389-1.300152-247.939055 86.070086-283.823261 212.314881L11.831386 968.613509a39.147588 39.147588 0 0 0 37.444389 49.795836c17.031996 0 32.633824-11.18131 37.444388-28.343322l137.81615-484.176739c26.263078-92.050787 110.902996-155.888268 206.33418-155.888268z m233.117318-75.538852L533.192483 273.031996l-59.676993-76.578974 81.909599-21.062468 108.562722 99.07161zM1038.561706 394.596242l-401.617064-5.590655h-1.560183c-40.824784 0-77.489081 22.492636-96.211275 58.766886a107.613611 107.613611 0 0 0 9.361097 113.763332c0.650076 0.780091 1.300152 1.690198 1.950229 2.470289l389.005586 446.602337a38.952565 38.952565 0 0 0 54.996445 3.770442 38.939563 38.939563 0 0 0 3.770442-54.996445L610.421534 514.080244c-9.101067-13.261554-4.420518-25.743017-1.820214-30.683596 2.600305-5.070594 10.271204-16.771965 27.3032-16.38192l401.617065 5.590655c21.062468-0.26003 39.264601-16.901981 39.524631-38.484509a39.212595 39.212595 0 0 0-38.48451-39.524632z" /></svg>