<?xml version="1.0" encoding="UTF-8"?>
<!DOCTYPE svg PUBLIC "-//W3C//DTD SVG 1.1//EN" "http://www.w3.org/Graphics/SVG/1.1/DTD/svg11.dtd">
<svg version="1.1" xmlns="http://www.w3.org/2000/svg" xmlns:xlink="http://www.w3.org/1999/xlink" x="0" y="0" width="200" height="200" viewBox="0, 0, 200, 200">
  <g id="Background">
    <rect x="0" y="0" width="200" height="200" fill="#FFFFFF"/>
  </g>
  <g id="Layer_1">
    <path d="M21.069,54.874 L181.52,54.874 C186.642,54.874 190.795,59.695 190.795,65.642 L190.795,133.484 C190.795,139.431 186.642,144.252 181.52,144.252 L21.069,144.252 C15.947,144.252 11.795,139.431 11.795,133.484 L11.795,65.642 C11.795,59.695 15.947,54.874 21.069,54.874 z" fill-opacity="0" stroke="#000000" stroke-width="8"/>
    <path d="M56.351,179.788 L56.351,19.338 C56.351,14.215 61.2,10.063 67.181,10.063 L135.408,10.063 C141.39,10.063 146.238,14.215 146.238,19.338 L146.238,179.788 C146.238,184.911 141.39,189.063 135.408,189.063 L67.181,189.063 C61.2,189.063 56.351,184.911 56.351,179.788 z" fill-opacity="0" stroke="#000000" stroke-width="8"/>
  </g>
</svg>
