<?xml version="1.0" encoding="iso-8859-1"?>
<!-- Uploaded to: SVG Repo, www.svgrepo.com, Generator: SVG Repo Mixer Tools -->
<svg fill="#000000" height="800px" width="800px" version="1.1" id="Layer_1" xmlns="http://www.w3.org/2000/svg" xmlns:xlink="http://www.w3.org/1999/xlink" 
	 viewBox="0 0 512.001 512.001" xml:space="preserve">
<g>
	<g>
		<path d="M438.294,76.606c-98.88-100.693-260.587-102.187-361.28-3.413c-0.853,0.747-1.6,1.6-2.453,2.453
			c-11.2,10.453-19.84,21.333-29.973,35.627c-0.533,0.747-0.96,1.6-1.28,2.56c-28.267,41.92-43.413,91.52-43.307,142.187
			c0,112.427,72.853,208,173.76,242.347c1.28,1.28,2.773,2.24,4.587,2.773c23.68,7.147,48.427,10.773,73.173,10.773
			c0.853,0,1.707,0,2.56,0c0.853,0,1.387,0,2.027,0c25.493,0,50.88-3.84,75.307-11.307c22.4-6.613,42.88-15.893,59.947-27.413
			c72.32-45.227,120.64-125.653,120.64-217.173c0-0.64,0-1.173,0-1.707s0-0.96,0-1.387
			C512.001,217.513,503.574,139.859,438.294,76.606z M88.961,91.113c3.413-3.2,7.04-6.4,11.307-9.6
			c3.627,7.253,8.96,13.547,15.573,18.347c8.747,6.4,17.6,8.533,24.96,6.187s31.147-2.347,44.373,2.24
			c4.16,1.28,8.32,2.133,12.587,2.88c19.413,3.733,59.733,11.413,74.027,36.8c7.573,13.44,7.253,31.253-0.853,52.907
			c-3.52,9.28-13.013,14.507-25.067,21.013c-18.24,10.027-41.067,22.4-49.813,55.467c-1.813,6.72-9.173,39.573-9.707,51.413
			c-0.427,5.333,0.427,13.333,1.387,23.36c1.067,10.773,3.093,31.36,1.813,40.747c-13.013-8.427-40-42.56-42.88-51.84
			c-0.107-4.693-1.6-11.307-3.52-20.48c-3.093-14.507-7.253-34.453-7.253-51.84c0-19.307-14.933-29.227-26.88-37.333
			c-14.08-9.387-22.72-15.893-22.72-30.293c0-15.787,6.613-27.733,12.373-38.187c6.08-10.987,12.267-22.293,7.787-34.667
			c-4.48-12.373-17.92-16.747-33.493-19.2C77.974,102.846,83.307,96.766,88.961,91.113z M380.801,454.953
			c-0.64,0.427-1.173,0.747-1.813,1.173c-0.64,0.427-1.173,0.64-1.707,1.067c-15.787,9.493-32.533,17.067-50.027,22.613
			c-23.893,7.04-48.533,10.667-73.493,10.88c-16-0.213-31.893-2.027-47.573-5.44c1.387-0.427,2.88-0.747,4.373-0.747
			c14.187-0.64,26.453-4.053,39.467-7.573c6.4-1.813,13.227-3.627,20.693-5.333c12.587-2.773,22.933-17.28,36.053-35.733
			c12.053-16.853,28.587-40,41.387-41.067c7.467-0.32,33.92,24.427,45.12,50.453C389.334,448.659,385.174,451.966,380.801,454.953z
			 M410.667,432.553c-13.76-27.947-42.987-60.693-64.427-59.093c-22.72,1.92-40.96,27.413-57.067,50.027
			c-7.36,10.347-18.56,25.92-23.253,27.307c-7.893,1.707-15.04,3.733-21.76,5.547c-12.267,3.413-22.933,6.293-34.667,6.827
			c-14.08,0.64-21.547,7.573-28.16,13.76c-0.32,0.32-0.853,0.747-1.173,1.067c-92.16-31.68-158.613-119.253-158.613-221.973
			c0-45.227,13.013-89.387,37.653-127.253c10.347,1.173,25.493,3.307,27.627,6.72c1.173,3.307-2.347,9.707-6.4,17.173
			c-6.4,11.52-15.04,27.2-15.04,48.533c0,26.453,18.56,38.933,32.213,48c12.16,8.107,17.387,12.48,17.387,19.627
			c0,19.627,4.48,40.853,7.68,56.32c1.493,7.04,2.987,14.4,2.987,16.853c0,16,45.867,74.133,67.52,74.133
			c4.48,0,8.853-1.92,11.84-5.333c8.747-9.707,7.467-30.293,4.373-60.693c-0.853-8.533-1.6-16.533-1.493-20.267
			c0.427-8.96,7.04-39.68,9.067-46.933c6.4-24.32,22.4-33.067,39.467-42.347c13.973-7.68,28.587-15.573,34.773-32.32
			c10.453-27.733,10.24-51.627-0.533-70.827c-19.2-34.133-66.027-42.987-88.64-47.36c-3.84-0.747-8.107-1.493-9.387-2.027
			c-17.493-6.187-46.187-6.293-57.493-2.453c-1.28,0-5.547-1.813-9.92-6.08c-4.373-4.267-6.293-8.64-6.293-11.093
			c0-0.747-0.213-1.493-0.32-2.24c69.227-50.347,160.533-58.88,237.973-22.187c-17.707,16.427-37.12,42.453-17.173,82.133
			c13.12,26.027,31.04,32.213,46.827,37.76c7.147,2.453,13.867,4.8,20.48,8.853c28.16,17.067,32.853,38.613,35.093,59.2
			c0.427,3.413,1.067,7.68,1.707,12.587c2.987,20.267,8.427,58.133,1.387,73.28c-8,17.493-2.56,41.067,12.8,58.347
			C445.121,397.246,429.227,416.339,410.667,432.553z M467.627,354.046c-5.333-9.387-6.933-19.84-3.52-27.307
			c9.6-20.907,4.053-59.627,0.32-85.227c-0.64-4.693-1.28-8.853-1.6-12.053c-2.027-17.92-5.76-51.2-45.333-75.093
			c-8.533-5.227-17.067-8.107-24.533-10.667c-14.827-5.12-25.493-8.853-34.773-27.2c-14.08-28.053-2.133-44.267,17.067-60.907
			c17.813,10.24,34.24,22.72,48.853,37.013c0.96,0.96,1.92,1.92,2.773,2.987c1.173,1.173,2.133,2.347,3.307,3.52
			c38.507,42.56,60.053,97.813,60.48,155.307C490.454,288.873,482.667,322.899,467.627,354.046z"/>
	</g>
</g>
</svg>