<?xml version="1.0" encoding="UTF-8" standalone="no"?>
<!-- Created with Inkscape (http://www.inkscape.org/) -->

<svg
   width="122.85116mm"
   height="138.49184mm"
   viewBox="0 0 122.85116 138.49184"
   version="1.1"
   id="svg1"
   xmlns="http://www.w3.org/2000/svg"
   xmlns:svg="http://www.w3.org/2000/svg">
  <defs
     id="defs1">
    <clipPath
       clipPathUnits="userSpaceOnUse"
       id="clipPath973">
      <path
         d="M 0,504.955 H 1032.85 V 0 H 0 Z"
         transform="translate(-912.66462,-322.57151)"
         id="path973" />
    </clipPath>
    <clipPath
       clipPathUnits="userSpaceOnUse"
       id="clipPath975">
      <path
         d="M 0,504.955 H 1032.85 V 0 H 0 Z"
         transform="translate(-821.57765,-191.299)"
         id="path975" />
    </clipPath>
    <clipPath
       clipPathUnits="userSpaceOnUse"
       id="clipPath977">
      <path
         d="M 0,504.955 H 1032.85 V 0 H 0 Z"
         transform="translate(-858.70565,-149.05311)"
         id="path977" />
    </clipPath>
    <clipPath
       clipPathUnits="userSpaceOnUse"
       id="clipPath979">
      <path
         d="M 0,504.955 H 1032.85 V 0 H 0 Z"
         transform="translate(-831.45732,-232.20841)"
         id="path979" />
    </clipPath>
    <clipPath
       clipPathUnits="userSpaceOnUse"
       id="clipPath981">
      <path
         d="M 0,504.955 H 1032.85 V 0 H 0 Z"
         transform="translate(-868.49735,-268.13971)"
         id="path981" />
    </clipPath>
    <clipPath
       clipPathUnits="userSpaceOnUse"
       id="clipPath983">
      <path
         d="M 0,504.955 H 1032.85 V 0 H 0 Z"
         transform="translate(-884.20182,-102.07371)"
         id="path983" />
    </clipPath>
    <clipPath
       clipPathUnits="userSpaceOnUse"
       id="clipPath985">
      <path
         d="M 0,504.955 H 1032.85 V 0 H 0 Z"
         transform="translate(-952.56792,-270.45231)"
         id="path985" />
    </clipPath>
    <clipPath
       clipPathUnits="userSpaceOnUse"
       id="clipPath987">
      <path
         d="M 0,504.955 H 1032.85 V 0 H 0 Z"
         transform="translate(-898.08095,-207.33961)"
         id="path987" />
    </clipPath>
    <clipPath
       clipPathUnits="userSpaceOnUse"
       id="clipPath989">
      <path
         d="M 0,504.955 H 1032.85 V 0 H 0 Z"
         transform="translate(-835.5902,-86.687102)"
         id="path989" />
    </clipPath>
    <clipPath
       clipPathUnits="userSpaceOnUse"
       id="clipPath991">
      <path
         d="M 0,504.955 H 1032.85 V 0 H 0 Z"
         transform="translate(-961.44455,-201.7156)"
         id="path991" />
    </clipPath>
    <clipPath
       clipPathUnits="userSpaceOnUse"
       id="clipPath993">
      <path
         d="M 0,504.955 H 1032.85 V 0 H 0 Z"
         transform="translate(-929.78862,-146.34321)"
         id="path993" />
    </clipPath>
    <clipPath
       clipPathUnits="userSpaceOnUse"
       id="clipPath995">
      <path
         d="M 0,504.955 H 1032.85 V 0 H 0 Z"
         transform="translate(-795.78859,-148.8214)"
         id="path995" />
    </clipPath>
    <clipPath
       clipPathUnits="userSpaceOnUse"
       id="clipPath997">
      <path
         d="M 0,504.955 H 1032.85 V 0 H 0 Z"
         transform="translate(-759.39859,-91.069705)"
         id="path997" />
    </clipPath>
    <clipPath
       clipPathUnits="userSpaceOnUse"
       id="clipPath999">
      <path
         d="M 0,504.955 H 1032.85 V 0 H 0 Z"
         transform="translate(-2.5000001e-5)"
         id="path999" />
    </clipPath>
    <clipPath
       clipPathUnits="userSpaceOnUse"
       id="clipPath1001">
      <path
         d="M 0,504.955 H 1032.85 V 0 H 0 Z"
         transform="translate(-2.5000001e-5)"
         id="path1001" />
    </clipPath>
    <clipPath
       clipPathUnits="userSpaceOnUse"
       id="clipPath1003">
      <path
         d="M 0,504.955 H 1032.85 V 0 H 0 Z"
         transform="translate(-2.5000001e-5)"
         id="path1003" />
    </clipPath>
    <clipPath
       clipPathUnits="userSpaceOnUse"
       id="clipPath1005">
      <path
         d="M 0,504.955 H 1032.85 V 0 H 0 Z"
         transform="translate(-654.29832,-356.33851)"
         id="path1005" />
    </clipPath>
    <clipPath
       clipPathUnits="userSpaceOnUse"
       id="clipPath1007">
      <path
         d="M 0,504.955 H 1032.85 V 0 H 0 Z"
         transform="translate(-691.67682,-359.78341)"
         id="path1007" />
    </clipPath>
    <clipPath
       clipPathUnits="userSpaceOnUse"
       id="clipPath1009">
      <path
         d="M 0,504.955 H 1032.85 V 0 H 0 Z"
         transform="translate(-732.96012,-327.28861)"
         id="path1009" />
    </clipPath>
    <clipPath
       clipPathUnits="userSpaceOnUse"
       id="clipPath1011">
      <path
         d="M 0,504.955 H 1032.85 V 0 H 0 Z"
         transform="translate(-769.41222,-339.33911)"
         id="path1011" />
    </clipPath>
    <clipPath
       clipPathUnits="userSpaceOnUse"
       id="clipPath1013">
      <path
         d="M 0,504.955 H 1032.85 V 0 H 0 Z"
         transform="translate(-801.38795,-285.9784)"
         id="path1013" />
    </clipPath>
    <clipPath
       clipPathUnits="userSpaceOnUse"
       id="clipPath1015">
      <path
         d="M 0,504.955 H 1032.85 V 0 H 0 Z"
         transform="translate(-854.60382,-304.23801)"
         id="path1015" />
    </clipPath>
    <clipPath
       clipPathUnits="userSpaceOnUse"
       id="clipPath1017">
      <path
         d="M 0,504.955 H 1032.85 V 0 H 0 Z"
         transform="translate(-718.39512,-372.52921)"
         id="path1017" />
    </clipPath>
    <clipPath
       clipPathUnits="userSpaceOnUse"
       id="clipPath1019">
      <path
         d="M 0,504.955 H 1032.85 V 0 H 0 Z"
         transform="translate(-741.11269,-367.98461)"
         id="path1019" />
    </clipPath>
    <clipPath
       clipPathUnits="userSpaceOnUse"
       id="clipPath1021">
      <path
         d="M 0,504.955 H 1032.85 V 0 H 0 Z"
         transform="translate(-762.87882,-311.86191)"
         id="path1021" />
    </clipPath>
    <clipPath
       clipPathUnits="userSpaceOnUse"
       id="clipPath1023">
      <path
         d="M 0,504.955 H 1032.85 V 0 H 0 Z"
         transform="translate(-810.90935,-340.97761)"
         id="path1023" />
    </clipPath>
    <clipPath
       clipPathUnits="userSpaceOnUse"
       id="clipPath1025">
      <path
         d="M 0,504.955 H 1032.85 V 0 H 0 Z"
         transform="translate(-693.31879,-337.92091)"
         id="path1025" />
    </clipPath>
  </defs>
  <g
     id="layer1"
     transform="translate(-9.7049359,-6.6048531)">
    <path
       id="path972"
       d="m 0,0 c 0,-5.304 -4.299,-9.603 -9.603,-9.603 -5.303,0 -9.603,4.299 -9.603,9.603 0,5.304 4.3,9.603 9.603,9.603 C -4.299,9.603 0,5.304 0,0"
       style="fill:#0093a6;fill-opacity:1;fill-rule:nonzero;stroke:none"
       transform="matrix(0.35277776,0,0,-0.35277776,115.34762,49.745863)"
       clip-path="url(#clipPath973)" />
    <path
       id="path974"
       d="m 0,0 c 0,-8.494 -6.885,-15.379 -15.379,-15.379 -8.493,0 -15.379,6.885 -15.379,15.379 0,8.494 6.886,15.379 15.379,15.379 C -6.885,15.379 0,8.494 0,0"
       style="fill:#2ebdb6;fill-opacity:1;fill-rule:nonzero;stroke:none"
       transform="matrix(0.35277776,0,0,-0.35277776,83.214164,96.055883)"
       clip-path="url(#clipPath975)" />
    <path
       id="path976"
       d="m 0,0 c 0,-14.639 -11.868,-26.507 -26.507,-26.507 -14.64,0 -26.507,11.868 -26.507,26.507 0,14.639 11.867,26.507 26.507,26.507 C -11.868,26.507 0,14.639 0,0"
       style="fill:#2ebdb6;fill-opacity:1;fill-rule:nonzero;stroke:none"
       transform="matrix(0.35277776,0,0,-0.35277776,96.312097,110.9593)"
       clip-path="url(#clipPath977)" />
    <path
       id="path978"
       d="m 0,0 c 0,-7.168 -5.811,-12.978 -12.978,-12.978 -7.168,0 -12.978,5.81 -12.978,12.978 0,7.168 5.81,12.978 12.978,12.978 C -5.811,12.978 0,7.168 0,0"
       style="fill:#00aab5;fill-opacity:1;fill-rule:nonzero;stroke:none"
       transform="matrix(0.35277776,0,0,-0.35277776,86.699494,81.623955)"
       clip-path="url(#clipPath979)" />
    <path
       id="path980"
       d="m 0,0 c 0,-12.62 -10.231,-22.851 -22.851,-22.851 -12.62,0 -22.851,10.231 -22.851,22.851 0,12.62 10.231,22.851 22.851,22.851 C -10.231,22.851 0,12.62 0,0"
       style="fill:#00aab5;fill-opacity:1;fill-rule:nonzero;stroke:none"
       transform="matrix(0.35277776,0,0,-0.35277776,99.766392,68.948191)"
       clip-path="url(#clipPath981)" />
    <path
       id="path982"
       d="m 0,0 c 0,-11.705 -9.489,-21.193 -21.193,-21.193 -11.705,0 -21.193,9.488 -21.193,21.193 0,11.705 9.488,21.193 21.193,21.193 C -9.489,21.193 0,11.705 0,0"
       style="fill:#5dc4b6;fill-opacity:1;fill-rule:nonzero;stroke:none"
       transform="matrix(0.35277776,0,0,-0.35277776,105.30658,127.53258)"
       clip-path="url(#clipPath983)" />
    <path
       id="path984"
       d="m 0,0 c 0,-19.313 -15.656,-34.969 -34.969,-34.969 -19.314,0 -34.97,15.656 -34.97,34.969 0,19.313 15.656,34.969 34.97,34.969 C -15.656,34.969 0,19.313 0,0"
       style="fill:#0093a6;fill-opacity:1;fill-rule:nonzero;stroke:none"
       transform="matrix(0.35277776,0,0,-0.35277776,129.42462,68.132356)"
       clip-path="url(#clipPath985)" />
    <path
       id="path986"
       d="m 0,0 c 0,-17.576 -14.248,-31.823 -31.823,-31.823 -17.576,0 -31.824,14.247 -31.824,31.823 0,17.576 14.248,31.823 31.824,31.823 C -14.248,31.823 0,17.576 0,0"
       style="fill:#00aab5;fill-opacity:1;fill-rule:nonzero;stroke:none"
       transform="matrix(0.35277776,0,0,-0.35277776,110.20283,90.397115)"
       clip-path="url(#clipPath987)" />
    <path
       id="path988"
       d="m 0,0 c 0,-16.963 -13.751,-30.714 -30.714,-30.714 -16.963,0 -30.714,13.751 -30.714,30.714 0,16.963 13.751,30.714 30.714,30.714 C -13.751,30.714 0,16.963 0,0"
       style="fill:#5dc4b6;fill-opacity:1;fill-rule:nonzero;stroke:none"
       transform="matrix(0.35277776,0,0,-0.35277776,88.15748,132.96063)"
       clip-path="url(#clipPath989)" />
    <path
       id="path990"
       d="m 0,0 c 0,-14.934 -12.107,-27.041 -27.041,-27.041 -14.934,0 -27.041,12.107 -27.041,27.041 0,14.934 12.107,27.041 27.041,27.041 C -12.107,27.041 0,14.934 0,0"
       style="fill:#00aab5;fill-opacity:1;fill-rule:nonzero;stroke:none"
       transform="matrix(0.35277776,0,0,-0.35277776,132.5561,92.381138)"
       clip-path="url(#clipPath991)" />
    <path
       id="path992"
       d="m 0,0 c 0,-16.043 -13.006,-29.049 -29.049,-29.049 -16.043,0 -29.049,13.006 -29.049,29.049 0,16.043 13.006,29.049 29.049,29.049 C -13.006,29.049 0,16.043 0,0"
       style="fill:#2ebdb6;fill-opacity:1;fill-rule:nonzero;stroke:none"
       transform="matrix(0.35277776,0,0,-0.35277776,121.38859,111.91529)"
       clip-path="url(#clipPath993)" />
    <path
       id="path994"
       d="m 0,0 c 0,-14.927 -12.101,-27.028 -27.028,-27.028 -14.928,0 -27.029,12.101 -27.029,27.028 0,14.927 12.101,27.028 27.029,27.028 C -12.101,27.028 0,14.927 0,0"
       style="fill:#5dc4b6;fill-opacity:1;fill-rule:nonzero;stroke:none"
       transform="matrix(0.35277776,0,0,-0.35277776,74.116361,111.04104)"
       clip-path="url(#clipPath995)" />
    <path
       id="path996"
       d="m 0,0 c 0,-21.42 -17.364,-38.784 -38.784,-38.784 -21.42,0 -38.784,17.364 -38.784,38.784 0,21.42 17.364,38.784 38.784,38.784 C -17.364,38.784 0,21.42 0,0"
       style="fill:#8ccfb7;fill-opacity:1;fill-rule:nonzero;stroke:none"
       transform="matrix(0.35277776,0,0,-0.35277776,61.278777,131.41455)"
       clip-path="url(#clipPath997)" />
    <path
       id="path998"
       d="M 653.367,425.874 H 634.38 v 18.987 h 18.987 z"
       style="fill:#005263;fill-opacity:1;fill-rule:nonzero;stroke:none"
       transform="matrix(0.35277776,0,0,-0.35277776,-206.62015,163.54192)"
       clip-path="url(#clipPath999)" />
    <path
       id="path1000"
       d="m 669.564,395.362 h -21.065 v 21.064 h 21.065 z"
       style="fill:#005263;fill-opacity:1;fill-rule:nonzero;stroke:none"
       transform="matrix(0.35277776,0,0,-0.35277776,-206.62015,163.54192)"
       clip-path="url(#clipPath1001)" />
    <path
       id="path1002"
       d="m 639.149,389.838 h -25.944 v 25.944 h 25.944 z"
       style="fill:#005263;fill-opacity:1;fill-rule:nonzero;stroke:none"
       transform="matrix(0.35277776,0,0,-0.35277776,-206.62015,163.54192)"
       clip-path="url(#clipPath1003)" />
    <path
       id="path1004"
       d="m 0,0 h -13.286 c -3.162,0 -5.725,2.563 -5.725,5.725 v 13.286 c 0,3.162 2.563,5.725 5.725,5.725 H 0 c 3.162,0 5.725,-2.563 5.725,-5.725 V 5.725 C 5.725,2.563 3.162,0 0,0"
       style="fill:#006279;fill-opacity:1;fill-rule:nonzero;stroke:none"
       transform="matrix(0.35277776,0,0,-0.35277776,24.201736,37.833615)"
       clip-path="url(#clipPath1005)" />
    <path
       id="path1006"
       d="m 0,0 h -14.67 c -4.084,0 -7.394,3.31 -7.394,7.394 v 14.67 c 0,4.084 3.31,7.394 7.394,7.394 H 0 c 4.084,0 7.394,-3.31 7.394,-7.394 V 7.394 C 7.394,3.31 4.084,0 0,0"
       style="fill:#006279;fill-opacity:1;fill-rule:nonzero;stroke:none"
       transform="matrix(0.35277776,0,0,-0.35277776,37.38804,36.618331)"
       clip-path="url(#clipPath1007)" />
    <path
       id="path1008"
       d="m 0,0 h -14.11 c -6.087,0 -11.021,4.935 -11.021,11.022 v 14.109 c 0,6.087 4.934,11.022 11.021,11.022 H 0 c 6.087,0 11.021,-4.935 11.021,-11.022 V 11.022 C 11.021,4.935 6.087,0 0,0"
       style="fill:#00687f;fill-opacity:1;fill-rule:nonzero;stroke:none"
       transform="matrix(0.35277776,0,0,-0.35277776,51.951871,48.081774)"
       clip-path="url(#clipPath1009)" />
    <path
       id="path1010"
       d="m 0,0 h -5.761 c -8.787,0 -15.911,7.124 -15.911,15.911 v 5.761 c 0,8.788 7.124,15.912 15.911,15.912 H 0 c 8.788,0 15.911,-7.124 15.911,-15.912 V 15.911 C 15.911,7.124 8.788,0 0,0"
       style="fill:#00829b;fill-opacity:1;fill-rule:nonzero;stroke:none"
       transform="matrix(0.35277776,0,0,-0.35277776,64.811362,43.830626)"
       clip-path="url(#clipPath1011)" />
    <path
       id="path1012"
       d="m 0,0 h -0.423 c -12.864,0 -23.292,10.428 -23.292,23.292 v 0.423 c 0,12.864 10.428,23.292 23.292,23.292 H 0 c 12.864,0 23.292,-10.428 23.292,-23.292 V 23.292 C 23.292,10.428 12.864,0 0,0"
       style="fill:#0093a6;fill-opacity:1;fill-rule:nonzero;stroke:none"
       transform="matrix(0.35277776,0,0,-0.35277776,76.091687,62.655095)"
       clip-path="url(#clipPath1013)" />
    <path
       id="path1014"
       d="m 0,0 v 0 c -13.894,0 -25.157,11.263 -25.157,25.157 v 0 c 0,13.894 11.263,25.158 25.157,25.158 v 0 c 13.894,0 25.157,-11.264 25.157,-25.158 v 0 C 25.157,11.263 13.894,0 0,0"
       style="fill:#0093a6;fill-opacity:1;fill-rule:nonzero;stroke:none"
       transform="matrix(0.35277776,0,0,-0.35277776,94.865065,56.213512)"
       clip-path="url(#clipPath1015)" />
    <path
       id="path1016"
       d="m 0,0 h -6.011 c -2.366,0 -4.285,1.918 -4.285,4.285 v 5.312 c 0,2.367 1.919,4.285 4.285,4.285 H 0 c 2.366,0 4.285,-1.918 4.285,-4.285 V 4.285 C 4.285,1.918 2.366,0 0,0"
       style="fill:#00687f;fill-opacity:1;fill-rule:nonzero;stroke:none"
       transform="matrix(0.35277776,0,0,-0.35277776,46.813663,32.121896)"
       clip-path="url(#clipPath1017)" />
    <path
       id="path1018"
       d="m 0,0 h -4.032 c -2.913,0 -5.274,2.361 -5.274,5.274 v 3.334 c 0,2.913 2.361,5.274 5.274,5.274 H 0 c 2.913,0 5.274,-2.361 5.274,-5.274 V 5.274 C 5.274,2.361 2.913,0 0,0"
       style="fill:#00829b;fill-opacity:1;fill-rule:nonzero;stroke:none"
       transform="matrix(0.35277776,0,0,-0.35277776,54.827918,33.725131)"
       clip-path="url(#clipPath1019)" />
    <path
       id="path1020"
       d="m 0,0 h -7.028 c -3.54,0 -6.409,2.869 -6.409,6.409 v 6.077 c 0,3.54 2.869,6.409 6.409,6.409 H 0 c 3.539,0 6.409,-2.869 6.409,-6.409 V 6.409 C 6.409,2.869 3.539,0 0,0"
       style="fill:#00829b;fill-opacity:1;fill-rule:nonzero;stroke:none"
       transform="matrix(0.35277776,0,0,-0.35277776,62.506523,53.52397)"
       clip-path="url(#clipPath1021)" />
    <path
       id="path1022"
       d="m 0,0 h -4.429 c -6.594,0 -11.939,5.345 -11.939,11.939 v 3.074 c 0,6.594 5.345,11.939 11.939,11.939 H 0 c 6.594,0 11.939,-5.345 11.939,-11.939 V 11.939 C 11.939,5.345 6.594,0 0,0"
       style="fill:#0093a6;fill-opacity:1;fill-rule:nonzero;stroke:none"
       transform="matrix(0.35277776,0,0,-0.35277776,79.450625,43.252599)"
       clip-path="url(#clipPath1023)" />
    <path
       id="path1024"
       d="m 0,0 h -6.074 c -2.349,0 -4.253,1.904 -4.253,4.253 v 5.376 c 0,2.349 1.904,4.253 4.253,4.253 H 0 c 2.349,0 4.253,-1.904 4.253,-4.253 V 4.253 C 4.253,1.904 2.349,0 0,0"
       style="fill:#006279;fill-opacity:1;fill-rule:nonzero;stroke:none"
       transform="matrix(0.35277776,0,0,-0.35277776,37.967293,44.330935)"
       clip-path="url(#clipPath1025)" />
  </g>
</svg>
