<?xml version="1.0" encoding="UTF-8"?>
<!DOCTYPE svg PUBLIC "-//W3C//DTD SVG 1.1//EN" "http://www.w3.org/Graphics/SVG/1.1/DTD/svg11.dtd">
<svg version="1.1" xmlns="http://www.w3.org/2000/svg" xmlns:xlink="http://www.w3.org/1999/xlink" x="0" y="0" width="200" height="200" viewBox="0, 0, 200, 200">
  <g id="Background">
    <rect x="0" y="0" width="200" height="200" fill="#FFFFFF"/>
  </g>
  <defs>
    <clipPath id="Clip_1">
      <path d="M-397.564,-183 L-48.564,-183 L-48.564,210 L-397.564,210 z"/>
    </clipPath>
  </defs>
  <g id="Layer_1">
    <g>
      <path d="M98.476,98.571 L98.415,155.048" fill-opacity="0" stroke="#9CD6C4" stroke-width="8"/>
      <path d="M105.676,98.578 L98.497,79.371 L91.276,98.563 M98.476,98.571 L98.497,79.371" fill-opacity="0" stroke="#9CD6C4" stroke-width="8" stroke-opacity="1"/>
      <path d="M91.215,155.04 L98.395,174.248 L105.615,155.056 M98.415,155.048 L98.395,174.248" fill-opacity="0" stroke="#9CD6C4" stroke-width="8" stroke-opacity="1"/>
    </g>
    <path d="M21.473,191.986 L186.5,191.986" fill-opacity="0" stroke="#016576" stroke-width="8"/>
    <g id="Layer_1">
      <path d="M-98.103,-60.711 C-98.103,-55.406 -102.404,-51.109 -107.709,-51.109 C-113.009,-51.109 -117.31,-55.406 -117.31,-60.711 C-117.31,-66.016 -113.009,-70.312 -107.709,-70.312 C-102.404,-70.312 -98.103,-66.016 -98.103,-60.711" fill="#00A3B5"/>
      <path d="M-189.193,70.562 C-189.193,79.055 -196.076,85.941 -204.572,85.941 C-213.064,85.941 -219.951,79.055 -219.951,70.562 C-219.951,62.066 -213.064,55.184 -204.572,55.184 C-196.076,55.184 -189.193,62.066 -189.193,70.562" fill="#32C7C3"/>
      <path d="M-152.064,112.809 C-152.064,127.445 -163.931,139.316 -178.572,139.316 C-193.209,139.316 -205.076,127.445 -205.076,112.809 C-205.076,98.168 -193.209,86.301 -178.572,86.301 C-163.931,86.301 -152.064,98.168 -152.064,112.809" fill="#32C7C3"/>
      <path d="M-179.31,29.652 C-179.31,36.82 -185.123,42.629 -192.291,42.629 C-199.459,42.629 -205.267,36.82 -205.267,29.652 C-205.267,22.484 -199.459,16.676 -192.291,16.676 C-185.123,16.676 -179.31,22.484 -179.31,29.652" fill="#00B7C2"/>
      <path d="M-142.271,-6.277 C-142.271,6.34 -152.502,16.574 -165.123,16.574 C-177.744,16.574 -187.974,6.34 -187.974,-6.277 C-187.974,-18.898 -177.744,-29.129 -165.123,-29.129 C-152.502,-29.129 -142.271,-18.898 -142.271,-6.277" fill="#00B7C2"/>
      <path d="M-126.568,159.789 C-126.568,171.492 -136.056,180.98 -147.759,180.98 C-159.466,180.98 -168.955,171.492 -168.955,159.789 C-168.955,148.082 -159.466,138.594 -147.759,138.594 C-136.056,138.594 -126.568,148.082 -126.568,159.789" fill="#6CCDC3"/>
      <path d="M-58.201,-8.59 C-58.201,10.723 -73.857,26.379 -93.169,26.379 C-112.486,26.379 -128.138,10.723 -128.138,-8.59 C-128.138,-27.906 -112.486,-43.559 -93.169,-43.559 C-73.857,-43.559 -58.201,-27.906 -58.201,-8.59" fill="#00A3B5"/>
      <path d="M-112.689,54.52 C-112.689,72.098 -126.935,86.344 -144.509,86.344 C-162.087,86.344 -176.334,72.098 -176.334,54.52 C-176.334,36.945 -162.087,22.699 -144.509,22.699 C-126.935,22.699 -112.689,36.945 -112.689,54.52" fill="#00B7C2"/>
      <path d="M-175.177,175.176 C-175.177,192.137 -188.931,205.887 -205.892,205.887 C-222.857,205.887 -236.607,192.137 -236.607,175.176 C-236.607,158.211 -222.857,144.461 -205.892,144.461 C-188.931,144.461 -175.177,158.211 -175.177,175.176" fill="#6CCDC3"/>
      <path d="M-49.326,60.145 C-49.326,75.078 -61.431,87.188 -76.365,87.188 C-91.298,87.188 -103.408,75.078 -103.408,60.145 C-103.408,45.211 -91.298,33.105 -76.365,33.105 C-61.431,33.105 -49.326,45.211 -49.326,60.145" fill="#00B7C2"/>
      <path d="M-80.982,115.52 C-80.982,131.562 -93.986,144.566 -110.029,144.566 C-126.072,144.566 -139.08,131.562 -139.08,115.52 C-139.08,99.477 -126.072,86.469 -110.029,86.469 C-93.986,86.469 -80.982,99.477 -80.982,115.52" fill="#32C7C3"/>
      <path d="M-214.982,113.039 C-214.982,127.965 -227.08,140.066 -242.009,140.066 C-256.935,140.066 -269.037,127.965 -269.037,113.039 C-269.037,98.113 -256.935,86.012 -242.009,86.012 C-227.08,86.012 -214.982,98.113 -214.982,113.039" fill="#6CCDC3"/>
      <path d="M-251.369,170.793 C-251.369,192.211 -268.736,209.574 -290.154,209.574 C-311.576,209.574 -328.939,192.211 -328.939,170.793 C-328.939,149.371 -311.576,132.008 -290.154,132.008 C-268.736,132.008 -251.369,149.371 -251.369,170.793" fill="#9CD6C4"/>
      <g clip-path="url(#Clip_1)">
        <path d="M-376.388,-183 L-357.404,-183 L-357.404,-164.012 L-376.388,-164.012 z" fill="#006576"/>
      </g>
      <path d="M-362.271,-154.566 L-341.205,-154.566 L-341.205,-133.5 L-362.271,-133.5 z" fill="#006576"/>
      <path d="M-397.564,-153.922 L-371.619,-153.922 L-371.619,-127.977 L-397.564,-127.977 z" fill="#006576"/>
      <path d="M-356.47,-94.477 L-369.755,-94.477 C-372.919,-94.477 -375.482,-97.039 -375.482,-100.203 L-375.482,-113.488 C-375.482,-116.652 -372.919,-119.215 -369.755,-119.215 L-356.47,-119.215 C-353.31,-119.215 -350.748,-116.652 -350.748,-113.488 L-350.748,-100.203 C-350.748,-97.039 -353.31,-94.477 -356.47,-94.477" fill="#00758C"/>
      <path d="M-319.091,-97.922 L-333.763,-97.922 C-337.845,-97.922 -341.158,-101.234 -341.158,-105.316 L-341.158,-119.988 C-341.158,-124.07 -337.845,-127.379 -333.763,-127.379 L-319.091,-127.379 C-315.009,-127.379 -311.697,-124.07 -311.697,-119.988 L-311.697,-105.316 C-311.697,-101.234 -315.009,-97.922 -319.091,-97.922" fill="#00758C"/>
      <path d="M-277.81,-65.426 L-291.919,-65.426 C-298.005,-65.426 -302.939,-70.363 -302.939,-76.449 L-302.939,-90.559 C-302.939,-96.645 -298.005,-101.582 -291.919,-101.582 L-277.81,-101.582 C-271.72,-101.582 -266.787,-96.645 -266.787,-90.559 L-266.787,-76.449 C-266.787,-70.363 -271.72,-65.426 -277.81,-65.426" fill="#007B92"/>
      <path d="M-241.357,-77.477 L-247.119,-77.477 C-255.904,-77.477 -263.029,-84.602 -263.029,-93.391 L-263.029,-99.148 C-263.029,-107.938 -255.904,-115.062 -247.119,-115.062 L-241.357,-115.062 C-232.568,-115.062 -225.447,-107.938 -225.447,-99.148 L-225.447,-93.391 C-225.447,-84.602 -232.568,-77.477 -241.357,-77.477" fill="#0094AB"/>
      <path d="M-209.38,-24.117 L-209.802,-24.117 C-222.669,-24.117 -233.095,-34.547 -233.095,-47.41 L-233.095,-47.832 C-233.095,-60.695 -222.669,-71.125 -209.802,-71.125 L-209.38,-71.125 C-196.517,-71.125 -186.087,-60.695 -186.087,-47.832 L-186.087,-47.41 C-186.087,-34.547 -196.517,-24.117 -209.38,-24.117" fill="#00A3B5"/>
      <path d="M-156.166,-42.379 C-170.06,-42.379 -181.322,-53.641 -181.322,-67.535 C-181.322,-81.43 -170.06,-92.691 -156.166,-92.691 C-142.271,-92.691 -131.009,-81.43 -131.009,-67.535 C-131.009,-53.641 -142.271,-42.379 -156.166,-42.379" fill="#00A3B5"/>
      <path d="M-292.373,-110.668 L-298.384,-110.668 C-300.752,-110.668 -302.669,-112.586 -302.669,-114.953 L-302.669,-120.266 C-302.669,-122.633 -300.752,-124.551 -298.384,-124.551 L-292.373,-124.551 C-290.009,-124.551 -288.087,-122.633 -288.087,-120.266 L-288.087,-114.953 C-288.087,-112.586 -290.009,-110.668 -292.373,-110.668" fill="#007B92"/>
      <path d="M-269.658,-106.125 L-273.689,-106.125 C-276.603,-106.125 -278.962,-108.484 -278.962,-111.398 L-278.962,-114.73 C-278.962,-117.645 -276.603,-120.004 -273.689,-120.004 L-269.658,-120.004 C-266.744,-120.004 -264.38,-117.645 -264.38,-114.73 L-264.38,-111.398 C-264.38,-108.484 -266.744,-106.125 -269.658,-106.125" fill="#0094AB"/>
      <path d="M-247.892,-50 L-254.919,-50 C-258.459,-50 -261.326,-52.871 -261.326,-56.41 L-261.326,-62.488 C-261.326,-66.027 -258.459,-68.895 -254.919,-68.895 L-247.892,-68.895 C-244.353,-68.895 -241.482,-66.027 -241.482,-62.488 L-241.482,-56.41 C-241.482,-52.871 -244.353,-50 -247.892,-50" fill="#0094AB"/>
      <path d="M-199.861,-79.117 L-204.291,-79.117 C-210.884,-79.117 -216.228,-84.461 -216.228,-91.055 L-216.228,-94.129 C-216.228,-100.723 -210.884,-106.07 -204.291,-106.07 L-199.861,-106.07 C-193.267,-106.07 -187.919,-100.723 -187.919,-94.129 L-187.919,-91.055 C-187.919,-84.461 -193.267,-79.117 -199.861,-79.117" fill="#00A3B5"/>
      <path d="M-317.451,-76.059 L-323.525,-76.059 C-325.873,-76.059 -327.779,-77.965 -327.779,-80.312 L-327.779,-85.688 C-327.779,-88.039 -325.873,-89.941 -323.525,-89.941 L-317.451,-89.941 C-315.103,-89.941 -313.197,-88.039 -313.197,-85.688 L-313.197,-80.312 C-313.197,-77.965 -315.103,-76.059 -317.451,-76.059" fill="#00758C"/>
    </g>
    <path d="M85.825,7.646 L78.498,62.164 L119.882,62.164 L113.041,7.966 z" fill-opacity="0" stroke="#016576" stroke-width="8"/>
    <path d="M67.574,7.646 L130.331,7.646" fill-opacity="0" stroke="#016576" stroke-width="8"/>
  </g>
</svg>
