<?xml version="1.0" encoding="UTF-8"?>
<!DOCTYPE svg PUBLIC "-//W3C//DTD SVG 1.1//EN" "http://www.w3.org/Graphics/SVG/1.1/DTD/svg11.dtd">
<svg version="1.1" xmlns="http://www.w3.org/2000/svg" xmlns:xlink="http://www.w3.org/1999/xlink" x="0" y="0" width="200" height="200" viewBox="0, 0, 200, 200">
  <g id="Background">
    <rect x="0" y="0" width="200" height="200" fill="#FFFFFF"/>
  </g>
  <defs>
    <clipPath id="Clip_1">
      <path d="M-403.506,-276.051 L-54.506,-276.051 L-54.506,116.949 L-403.506,116.949 z"/>
    </clipPath>
  </defs>
  <g id="Layer_1">
    <path d="M8.524,260.207 L195.845,260.207 L195.845,351.586 L8.524,351.586 L8.524,260.207 z" fill-opacity="0" stroke="#02B7C2" stroke-width="8"/>
    <path d="M116.649,118.743 L135.987,118.743 L135.987,135.76 L116.649,135.76 L116.649,118.743 z" fill-opacity="0" stroke="#016576" stroke-width="8" stroke-linejoin="round"/>
    <path d="M106.531,-85.555 L106.531,-68.661 L175.797,-68.661 L175.797,-85.217" fill-opacity="0" stroke="#016576" stroke-width="8"/>
    <path d="M118.357,-64.607 L129.783,-64.607" fill-opacity="0" stroke="#016576" stroke-width="8" stroke-linecap="round"/>
    <path d="M152.547,-64.673 L161.67,-64.673" fill-opacity="0" stroke="#016576" stroke-width="8" stroke-linecap="round"/>
    <g id="Layer_1">
      <path d="M-104.045,-153.762 C-104.045,-148.457 -108.346,-144.16 -113.651,-144.16 C-118.951,-144.16 -123.252,-148.457 -123.252,-153.762 C-123.252,-159.067 -118.951,-163.363 -113.651,-163.363 C-108.346,-163.363 -104.045,-159.067 -104.045,-153.762" fill="#00A3B5"/>
      <path d="M-195.135,-22.489 C-195.135,-13.996 -202.018,-7.11 -210.514,-7.11 C-219.006,-7.11 -225.893,-13.996 -225.893,-22.489 C-225.893,-30.985 -219.006,-37.867 -210.514,-37.867 C-202.018,-37.867 -195.135,-30.985 -195.135,-22.489" fill="#32C7C3"/>
      <path d="M-158.006,19.758 C-158.006,34.394 -169.873,46.265 -184.514,46.265 C-199.151,46.265 -211.018,34.394 -211.018,19.758 C-211.018,5.117 -199.151,-6.75 -184.514,-6.75 C-169.873,-6.75 -158.006,5.117 -158.006,19.758" fill="#32C7C3"/>
      <path d="M-185.252,-63.399 C-185.252,-56.231 -191.065,-50.422 -198.233,-50.422 C-205.401,-50.422 -211.209,-56.231 -211.209,-63.399 C-211.209,-70.567 -205.401,-76.375 -198.233,-76.375 C-191.065,-76.375 -185.252,-70.567 -185.252,-63.399" fill="#00B7C2"/>
      <path d="M-148.213,-99.328 C-148.213,-86.711 -158.444,-76.477 -171.065,-76.477 C-183.686,-76.477 -193.916,-86.711 -193.916,-99.328 C-193.916,-111.949 -183.686,-122.18 -171.065,-122.18 C-158.444,-122.18 -148.213,-111.949 -148.213,-99.328" fill="#00B7C2"/>
      <path d="M-132.51,66.738 C-132.51,78.441 -141.998,87.929 -153.701,87.929 C-165.408,87.929 -174.897,78.441 -174.897,66.738 C-174.897,55.031 -165.408,45.543 -153.701,45.543 C-141.998,45.543 -132.51,55.031 -132.51,66.738" fill="#6CCDC3"/>
      <path d="M-64.143,-101.641 C-64.143,-82.328 -79.799,-66.672 -99.111,-66.672 C-118.428,-66.672 -134.08,-82.328 -134.08,-101.641 C-134.08,-120.957 -118.428,-136.61 -99.111,-136.61 C-79.799,-136.61 -64.143,-120.957 -64.143,-101.641" fill="#00A3B5"/>
      <path d="M-118.631,-38.531 C-118.631,-20.953 -132.877,-6.707 -150.451,-6.707 C-168.029,-6.707 -182.276,-20.953 -182.276,-38.531 C-182.276,-56.106 -168.029,-70.352 -150.451,-70.352 C-132.877,-70.352 -118.631,-56.106 -118.631,-38.531" fill="#00B7C2"/>
      <path d="M-181.119,82.125 C-181.119,99.086 -194.873,112.836 -211.834,112.836 C-228.799,112.836 -242.549,99.086 -242.549,82.125 C-242.549,65.16 -228.799,51.41 -211.834,51.41 C-194.873,51.41 -181.119,65.16 -181.119,82.125" fill="#6CCDC3"/>
      <path d="M-55.268,-32.906 C-55.268,-17.973 -67.373,-5.863 -82.307,-5.863 C-97.24,-5.863 -109.35,-17.973 -109.35,-32.906 C-109.35,-47.84 -97.24,-59.946 -82.307,-59.946 C-67.373,-59.946 -55.268,-47.84 -55.268,-32.906" fill="#00B7C2"/>
      <path d="M-86.924,22.469 C-86.924,38.511 -99.928,51.515 -115.971,51.515 C-132.014,51.515 -145.022,38.511 -145.022,22.469 C-145.022,6.426 -132.014,-6.582 -115.971,-6.582 C-99.928,-6.582 -86.924,6.426 -86.924,22.469" fill="#32C7C3"/>
      <path d="M-220.924,19.988 C-220.924,34.914 -233.022,47.015 -247.951,47.015 C-262.877,47.015 -274.979,34.914 -274.979,19.988 C-274.979,5.062 -262.877,-7.039 -247.951,-7.039 C-233.022,-7.039 -220.924,5.062 -220.924,19.988" fill="#6CCDC3"/>
      <path d="M-257.311,77.742 C-257.311,99.16 -274.678,116.523 -296.096,116.523 C-317.518,116.523 -334.881,99.16 -334.881,77.742 C-334.881,56.32 -317.518,38.957 -296.096,38.957 C-274.678,38.957 -257.311,56.32 -257.311,77.742" fill="#9CD6C4"/>
      <g clip-path="url(#Clip_1)">
        <path d="M-382.33,-276.051 L-363.346,-276.051 L-363.346,-257.063 L-382.33,-257.063 z" fill="#006576"/>
      </g>
      <path d="M-368.213,-247.617 L-347.147,-247.617 L-347.147,-226.551 L-368.213,-226.551 z" fill="#006576"/>
      <path d="M-403.506,-246.973 L-377.561,-246.973 L-377.561,-221.028 L-403.506,-221.028 z" fill="#006576"/>
      <path d="M-362.412,-187.528 L-375.697,-187.528 C-378.861,-187.528 -381.424,-190.09 -381.424,-193.254 L-381.424,-206.539 C-381.424,-209.703 -378.861,-212.266 -375.697,-212.266 L-362.412,-212.266 C-359.252,-212.266 -356.69,-209.703 -356.69,-206.539 L-356.69,-193.254 C-356.69,-190.09 -359.252,-187.528 -362.412,-187.528" fill="#00758C"/>
      <path d="M-325.033,-190.973 L-339.705,-190.973 C-343.787,-190.973 -347.1,-194.285 -347.1,-198.367 L-347.1,-213.039 C-347.1,-217.121 -343.787,-220.43 -339.705,-220.43 L-325.033,-220.43 C-320.951,-220.43 -317.639,-217.121 -317.639,-213.039 L-317.639,-198.367 C-317.639,-194.285 -320.951,-190.973 -325.033,-190.973" fill="#00758C"/>
      <path d="M-283.752,-158.477 L-297.861,-158.477 C-303.947,-158.477 -308.881,-163.414 -308.881,-169.5 L-308.881,-183.61 C-308.881,-189.696 -303.947,-194.633 -297.861,-194.633 L-283.752,-194.633 C-277.662,-194.633 -272.729,-189.696 -272.729,-183.61 L-272.729,-169.5 C-272.729,-163.414 -277.662,-158.477 -283.752,-158.477" fill="#007B92"/>
      <path d="M-247.299,-170.528 L-253.061,-170.528 C-261.846,-170.528 -268.971,-177.653 -268.971,-186.442 L-268.971,-192.199 C-268.971,-200.989 -261.846,-208.113 -253.061,-208.113 L-247.299,-208.113 C-238.51,-208.113 -231.389,-200.989 -231.389,-192.199 L-231.389,-186.442 C-231.389,-177.653 -238.51,-170.528 -247.299,-170.528" fill="#0094AB"/>
      <path d="M-215.322,-117.168 L-215.744,-117.168 C-228.611,-117.168 -239.037,-127.598 -239.037,-140.461 L-239.037,-140.883 C-239.037,-153.746 -228.611,-164.176 -215.744,-164.176 L-215.322,-164.176 C-202.459,-164.176 -192.029,-153.746 -192.029,-140.883 L-192.029,-140.461 C-192.029,-127.598 -202.459,-117.168 -215.322,-117.168" fill="#00A3B5"/>
      <path d="M-162.108,-135.43 C-176.002,-135.43 -187.264,-146.692 -187.264,-160.586 C-187.264,-174.481 -176.002,-185.742 -162.108,-185.742 C-148.213,-185.742 -136.951,-174.481 -136.951,-160.586 C-136.951,-146.692 -148.213,-135.43 -162.108,-135.43" fill="#00A3B5"/>
      <path d="M-298.315,-203.719 L-304.326,-203.719 C-306.694,-203.719 -308.611,-205.637 -308.611,-208.004 L-308.611,-213.317 C-308.611,-215.684 -306.694,-217.602 -304.326,-217.602 L-298.315,-217.602 C-295.951,-217.602 -294.029,-215.684 -294.029,-213.317 L-294.029,-208.004 C-294.029,-205.637 -295.951,-203.719 -298.315,-203.719" fill="#007B92"/>
      <path d="M-275.6,-199.176 L-279.631,-199.176 C-282.545,-199.176 -284.904,-201.535 -284.904,-204.449 L-284.904,-207.781 C-284.904,-210.696 -282.545,-213.055 -279.631,-213.055 L-275.6,-213.055 C-272.686,-213.055 -270.322,-210.696 -270.322,-207.781 L-270.322,-204.449 C-270.322,-201.535 -272.686,-199.176 -275.6,-199.176" fill="#0094AB"/>
      <path d="M-253.834,-143.051 L-260.861,-143.051 C-264.401,-143.051 -267.268,-145.922 -267.268,-149.461 L-267.268,-155.539 C-267.268,-159.078 -264.401,-161.946 -260.861,-161.946 L-253.834,-161.946 C-250.295,-161.946 -247.424,-159.078 -247.424,-155.539 L-247.424,-149.461 C-247.424,-145.922 -250.295,-143.051 -253.834,-143.051" fill="#0094AB"/>
      <path d="M-205.803,-172.168 L-210.233,-172.168 C-216.826,-172.168 -222.17,-177.512 -222.17,-184.106 L-222.17,-187.18 C-222.17,-193.774 -216.826,-199.121 -210.233,-199.121 L-205.803,-199.121 C-199.209,-199.121 -193.861,-193.774 -193.861,-187.18 L-193.861,-184.106 C-193.861,-177.512 -199.209,-172.168 -205.803,-172.168" fill="#00A3B5"/>
      <path d="M-323.393,-169.11 L-329.467,-169.11 C-331.815,-169.11 -333.721,-171.016 -333.721,-173.363 L-333.721,-178.739 C-333.721,-181.09 -331.815,-182.992 -329.467,-182.992 L-323.393,-182.992 C-321.045,-182.992 -319.139,-181.09 -319.139,-178.739 L-319.139,-173.363 C-319.139,-171.016 -321.045,-169.11 -323.393,-169.11" fill="#00758C"/>
    </g>
    <path d="M148.4,118.605 C153.885,117.919 190.222,124.775 189.536,72.67 C189.342,57.904 154.022,43.875 112.749,43.875 C71.477,43.875 38.02,55.846 38.02,70.613 C38.02,85.38 59.959,116.548 99.038,119.29 z" fill-opacity="0" stroke="#016576" stroke-width="8"/>
    <path d="M30.433,70.613 L194.026,70.613" fill-opacity="0" stroke="#016576" stroke-width="8" stroke-linecap="round"/>
    <path d="M0.559,100.17 C9.317,100.17 16.416,95.352 16.416,89.408 C16.416,95.622 23.688,100.659 32.659,100.659 C41.417,100.659 48.516,95.841 48.516,89.897 C48.516,96.111 55.788,101.149 64.759,101.149 C73.516,101.149 80.616,96.33 80.616,90.386 C80.616,96.6 87.888,101.638 96.859,101.638 C105.616,101.638 112.716,96.819 112.716,90.875 C112.716,97.089 119.988,102.127 128.959,102.127 C137.716,102.127 144.816,97.309 144.816,91.365 C144.816,97.579 152.088,102.616 161.059,102.616 C169.816,102.616 176.915,97.798 176.915,91.854 C176.915,98.068 184.188,103.105 193.159,103.105 C201.916,103.105 209.015,98.287 209.015,92.343 C209.015,98.557 216.288,103.595 225.259,103.595 C234.016,103.595 241.115,98.776 241.115,92.832 C241.115,99.046 248.388,104.084 257.359,104.084" fill-opacity="0" stroke="#02B7C2" stroke-width="8" stroke-linecap="square" stroke-linejoin="round" stroke-miterlimit="10"/>
  </g>
</svg>
